<svg width="564" height="316" viewBox="0 0 564 316" fill="none" xmlns="http://www.w3.org/2000/svg">
<g filter="url(#filter0_d_2880_948)">
<rect x="32" y="28" width="500" height="68" rx="4" fill="#0A2640"/>
</g>
<path d="M73.24 62.24C74.3658 61.1142 74.9983 59.5872 74.9983 57.995C74.9983 56.4029 74.3658 54.8759 73.24 53.75C72.1142 52.6242 70.5872 51.9917 68.995 51.9917C67.4028 51.9917 65.8758 52.6242 64.75 53.75L58 60.5V69H66.5L73.24 62.24Z" stroke="white" stroke-width="2" stroke-linecap="round" stroke-linejoin="round"/>
<path d="M69 58L55 72" stroke="white" stroke-width="2" stroke-linecap="round" stroke-linejoin="round"/>
<path d="M70.5 65H62" stroke="white" stroke-width="2" stroke-linecap="round" stroke-linejoin="round"/>
<path d="M112.008 56.5781L109.023 68H106.977L105.07 61.1562C105.023 60.9896 104.971 60.7917 104.914 60.5625C104.857 60.3333 104.799 60.099 104.742 59.8594C104.69 59.6198 104.643 59.401 104.602 59.2031C104.565 59 104.539 58.8438 104.523 58.7344C104.513 58.8438 104.49 58.9974 104.453 59.1953C104.417 59.3932 104.372 59.612 104.32 59.8516C104.273 60.0859 104.221 60.3203 104.164 60.5547C104.107 60.7839 104.055 60.987 104.008 61.1641L102.133 68H100.094L97.1172 56.5781H99L100.648 63.2734C100.701 63.487 100.753 63.7188 100.805 63.9688C100.862 64.2135 100.914 64.4609 100.961 64.7109C101.013 64.9609 101.06 65.2057 101.102 65.4453C101.143 65.6797 101.177 65.8932 101.203 66.0859C101.229 65.888 101.263 65.6693 101.305 65.4297C101.346 65.1849 101.391 64.9375 101.438 64.6875C101.49 64.4323 101.542 64.1875 101.594 63.9531C101.651 63.7188 101.708 63.5078 101.766 63.3203L103.625 56.5781H105.453L107.352 63.3438C107.409 63.5365 107.464 63.7526 107.516 63.9922C107.573 64.2318 107.628 64.4766 107.68 64.7266C107.732 64.9766 107.779 65.2188 107.82 65.4531C107.862 65.6875 107.896 65.8984 107.922 66.0859C107.958 65.8307 108.005 65.5391 108.062 65.2109C108.12 64.8828 108.185 64.5495 108.258 64.2109C108.331 63.8724 108.404 63.5599 108.477 63.2734L110.117 56.5781H112.008ZM116.883 59.1875C117.654 59.1875 118.315 59.3464 118.867 59.6641C119.419 59.9818 119.844 60.4323 120.141 61.0156C120.438 61.599 120.586 62.2969 120.586 63.1094V64.0938H114.812C114.833 64.9323 115.057 65.5781 115.484 66.0312C115.917 66.4844 116.521 66.7109 117.297 66.7109C117.849 66.7109 118.344 66.6589 118.781 66.5547C119.224 66.4453 119.68 66.2865 120.148 66.0781V67.5703C119.716 67.7734 119.276 67.9219 118.828 68.0156C118.38 68.1094 117.844 68.1562 117.219 68.1562C116.37 68.1562 115.622 67.9922 114.977 67.6641C114.336 67.3307 113.833 66.8359 113.469 66.1797C113.109 65.5234 112.93 64.7083 112.93 63.7344C112.93 62.7656 113.094 61.9427 113.422 61.2656C113.75 60.5885 114.211 60.0729 114.805 59.7188C115.398 59.3646 116.091 59.1875 116.883 59.1875ZM116.883 60.5703C116.305 60.5703 115.836 60.7578 115.477 61.1328C115.122 61.5078 114.914 62.0573 114.852 62.7812H118.789C118.784 62.349 118.711 61.9661 118.57 61.6328C118.435 61.2995 118.227 61.0391 117.945 60.8516C117.669 60.6641 117.315 60.5703 116.883 60.5703ZM130.297 68.1562C129.479 68.1562 128.771 67.9974 128.172 67.6797C127.573 67.362 127.112 66.875 126.789 66.2188C126.466 65.5625 126.305 64.7292 126.305 63.7188C126.305 62.6667 126.482 61.8073 126.836 61.1406C127.19 60.474 127.68 59.9818 128.305 59.6641C128.935 59.3464 129.656 59.1875 130.469 59.1875C130.984 59.1875 131.451 59.2396 131.867 59.3438C132.289 59.4427 132.646 59.5651 132.938 59.7109L132.391 61.1797C132.073 61.0495 131.747 60.9401 131.414 60.8516C131.081 60.763 130.76 60.7188 130.453 60.7188C129.948 60.7188 129.526 60.8307 129.188 61.0547C128.854 61.2786 128.604 61.612 128.438 62.0547C128.276 62.4974 128.195 63.0469 128.195 63.7031C128.195 64.3385 128.279 64.875 128.445 65.3125C128.612 65.7448 128.859 66.0729 129.188 66.2969C129.516 66.5156 129.919 66.625 130.398 66.625C130.872 66.625 131.297 66.5677 131.672 66.4531C132.047 66.3385 132.401 66.1901 132.734 66.0078V67.6016C132.406 67.7891 132.055 67.9271 131.68 68.0156C131.305 68.1094 130.844 68.1562 130.297 68.1562ZM142.422 63.6562C142.422 64.375 142.328 65.013 142.141 65.5703C141.953 66.1276 141.68 66.599 141.32 66.9844C140.961 67.3646 140.529 67.6562 140.023 67.8594C139.518 68.0573 138.948 68.1562 138.312 68.1562C137.719 68.1562 137.174 68.0573 136.68 67.8594C136.185 67.6562 135.755 67.3646 135.391 66.9844C135.031 66.599 134.753 66.1276 134.555 65.5703C134.357 65.013 134.258 64.375 134.258 63.6562C134.258 62.7031 134.422 61.8958 134.75 61.2344C135.083 60.5677 135.557 60.0599 136.172 59.7109C136.786 59.362 137.518 59.1875 138.367 59.1875C139.164 59.1875 139.867 59.362 140.477 59.7109C141.086 60.0599 141.562 60.5677 141.906 61.2344C142.25 61.901 142.422 62.7083 142.422 63.6562ZM136.148 63.6562C136.148 64.2865 136.224 64.8255 136.375 65.2734C136.531 65.7214 136.771 66.0651 137.094 66.3047C137.417 66.5391 137.833 66.6562 138.344 66.6562C138.854 66.6562 139.271 66.5391 139.594 66.3047C139.917 66.0651 140.154 65.7214 140.305 65.2734C140.456 64.8255 140.531 64.2865 140.531 63.6562C140.531 63.026 140.456 62.4922 140.305 62.0547C140.154 61.612 139.917 61.276 139.594 61.0469C139.271 60.8125 138.852 60.6953 138.336 60.6953C137.576 60.6953 137.021 60.9505 136.672 61.4609C136.323 61.9714 136.148 62.7031 136.148 63.6562ZM149.039 59.1875C150.013 59.1875 150.771 59.4401 151.312 59.9453C151.859 60.4453 152.133 61.25 152.133 62.3594V68H150.297V62.7031C150.297 62.0312 150.159 61.5286 149.883 61.1953C149.607 60.8568 149.18 60.6875 148.602 60.6875C147.763 60.6875 147.18 60.9453 146.852 61.4609C146.529 61.9766 146.367 62.724 146.367 63.7031V68H144.531V59.3516H145.961L146.219 60.5234H146.32C146.508 60.2214 146.74 59.974 147.016 59.7812C147.297 59.5833 147.609 59.4349 147.953 59.3359C148.302 59.237 148.664 59.1875 149.039 59.1875ZM159.211 59.1875C160.185 59.1875 160.943 59.4401 161.484 59.9453C162.031 60.4453 162.305 61.25 162.305 62.3594V68H160.469V62.7031C160.469 62.0312 160.331 61.5286 160.055 61.1953C159.779 60.8568 159.352 60.6875 158.773 60.6875C157.935 60.6875 157.352 60.9453 157.023 61.4609C156.701 61.9766 156.539 62.724 156.539 63.7031V68H154.703V59.3516H156.133L156.391 60.5234H156.492C156.68 60.2214 156.911 59.974 157.188 59.7812C157.469 59.5833 157.781 59.4349 158.125 59.3359C158.474 59.237 158.836 59.1875 159.211 59.1875ZM168.32 59.1875C169.091 59.1875 169.753 59.3464 170.305 59.6641C170.857 59.9818 171.281 60.4323 171.578 61.0156C171.875 61.599 172.023 62.2969 172.023 63.1094V64.0938H166.25C166.271 64.9323 166.495 65.5781 166.922 66.0312C167.354 66.4844 167.958 66.7109 168.734 66.7109C169.286 66.7109 169.781 66.6589 170.219 66.5547C170.661 66.4453 171.117 66.2865 171.586 66.0781V67.5703C171.154 67.7734 170.714 67.9219 170.266 68.0156C169.818 68.1094 169.281 68.1562 168.656 68.1562C167.807 68.1562 167.06 67.9922 166.414 67.6641C165.773 67.3307 165.271 66.8359 164.906 66.1797C164.547 65.5234 164.367 64.7083 164.367 63.7344C164.367 62.7656 164.531 61.9427 164.859 61.2656C165.188 60.5885 165.648 60.0729 166.242 59.7188C166.836 59.3646 167.529 59.1875 168.32 59.1875ZM168.32 60.5703C167.742 60.5703 167.273 60.7578 166.914 61.1328C166.56 61.5078 166.352 62.0573 166.289 62.7812H170.227C170.221 62.349 170.148 61.9661 170.008 61.6328C169.872 61.2995 169.664 61.0391 169.383 60.8516C169.107 60.6641 168.753 60.5703 168.32 60.5703ZM177.578 68.1562C176.76 68.1562 176.052 67.9974 175.453 67.6797C174.854 67.362 174.393 66.875 174.07 66.2188C173.747 65.5625 173.586 64.7292 173.586 63.7188C173.586 62.6667 173.763 61.8073 174.117 61.1406C174.471 60.474 174.961 59.9818 175.586 59.6641C176.216 59.3464 176.938 59.1875 177.75 59.1875C178.266 59.1875 178.732 59.2396 179.148 59.3438C179.57 59.4427 179.927 59.5651 180.219 59.7109L179.672 61.1797C179.354 61.0495 179.029 60.9401 178.695 60.8516C178.362 60.763 178.042 60.7188 177.734 60.7188C177.229 60.7188 176.807 60.8307 176.469 61.0547C176.135 61.2786 175.885 61.612 175.719 62.0547C175.557 62.4974 175.477 63.0469 175.477 63.7031C175.477 64.3385 175.56 64.875 175.727 65.3125C175.893 65.7448 176.141 66.0729 176.469 66.2969C176.797 66.5156 177.201 66.625 177.68 66.625C178.154 66.625 178.578 66.5677 178.953 66.4531C179.328 66.3385 179.682 66.1901 180.016 66.0078V67.6016C179.688 67.7891 179.336 67.9271 178.961 68.0156C178.586 68.1094 178.125 68.1562 177.578 68.1562ZM185.266 66.6719C185.505 66.6719 185.742 66.651 185.977 66.6094C186.211 66.5625 186.424 66.5078 186.617 66.4453V67.8359C186.414 67.9245 186.151 68 185.828 68.0625C185.505 68.125 185.169 68.1562 184.82 68.1562C184.331 68.1562 183.891 68.0755 183.5 67.9141C183.109 67.7474 182.799 67.4635 182.57 67.0625C182.341 66.6615 182.227 66.1068 182.227 65.3984V60.75H181.047V59.9297L182.312 59.2812L182.914 57.4297H184.07V59.3516H186.547V60.75H184.07V65.375C184.07 65.8125 184.18 66.138 184.398 66.3516C184.617 66.5651 184.906 66.6719 185.266 66.6719ZM200.188 63.6562C200.188 64.375 200.094 65.013 199.906 65.5703C199.719 66.1276 199.445 66.599 199.086 66.9844C198.727 67.3646 198.294 67.6562 197.789 67.8594C197.284 68.0573 196.714 68.1562 196.078 68.1562C195.484 68.1562 194.94 68.0573 194.445 67.8594C193.951 67.6562 193.521 67.3646 193.156 66.9844C192.797 66.599 192.518 66.1276 192.32 65.5703C192.122 65.013 192.023 64.375 192.023 63.6562C192.023 62.7031 192.188 61.8958 192.516 61.2344C192.849 60.5677 193.323 60.0599 193.938 59.7109C194.552 59.362 195.284 59.1875 196.133 59.1875C196.93 59.1875 197.633 59.362 198.242 59.7109C198.852 60.0599 199.328 60.5677 199.672 61.2344C200.016 61.901 200.188 62.7083 200.188 63.6562ZM193.914 63.6562C193.914 64.2865 193.99 64.8255 194.141 65.2734C194.297 65.7214 194.536 66.0651 194.859 66.3047C195.182 66.5391 195.599 66.6562 196.109 66.6562C196.62 66.6562 197.036 66.5391 197.359 66.3047C197.682 66.0651 197.919 65.7214 198.07 65.2734C198.221 64.8255 198.297 64.2865 198.297 63.6562C198.297 63.026 198.221 62.4922 198.07 62.0547C197.919 61.612 197.682 61.276 197.359 61.0469C197.036 60.8125 196.617 60.6953 196.102 60.6953C195.341 60.6953 194.786 60.9505 194.438 61.4609C194.089 61.9714 193.914 62.7031 193.914 63.6562ZM209.836 59.3516V68H208.391L208.141 66.8359H208.039C207.857 67.1328 207.625 67.3802 207.344 67.5781C207.062 67.7708 206.75 67.9141 206.406 68.0078C206.062 68.1068 205.701 68.1562 205.32 68.1562C204.669 68.1562 204.112 68.0469 203.648 67.8281C203.19 67.6042 202.839 67.2604 202.594 66.7969C202.349 66.3333 202.227 65.7344 202.227 65V59.3516H204.07V64.6562C204.07 65.3281 204.206 65.8307 204.477 66.1641C204.753 66.4974 205.18 66.6641 205.758 66.6641C206.315 66.6641 206.758 66.5495 207.086 66.3203C207.414 66.0911 207.646 65.7526 207.781 65.3047C207.922 64.8568 207.992 64.3073 207.992 63.6562V59.3516H209.836ZM216.852 59.1875C216.997 59.1875 217.156 59.1953 217.328 59.2109C217.5 59.2266 217.648 59.2474 217.773 59.2734L217.602 60.9922C217.492 60.9609 217.357 60.9375 217.195 60.9219C217.039 60.9062 216.898 60.8984 216.773 60.8984C216.445 60.8984 216.133 60.9531 215.836 61.0625C215.539 61.1667 215.276 61.3281 215.047 61.5469C214.818 61.7604 214.638 62.0286 214.508 62.3516C214.378 62.6745 214.312 63.0495 214.312 63.4766V68H212.469V59.3516H213.906L214.156 60.875H214.242C214.414 60.5677 214.628 60.2865 214.883 60.0312C215.138 59.776 215.43 59.5729 215.758 59.4219C216.091 59.2656 216.456 59.1875 216.852 59.1875ZM227.016 68.1562C226.198 68.1562 225.49 67.9974 224.891 67.6797C224.292 67.362 223.831 66.875 223.508 66.2188C223.185 65.5625 223.023 64.7292 223.023 63.7188C223.023 62.6667 223.201 61.8073 223.555 61.1406C223.909 60.474 224.398 59.9818 225.023 59.6641C225.654 59.3464 226.375 59.1875 227.188 59.1875C227.703 59.1875 228.169 59.2396 228.586 59.3438C229.008 59.4427 229.365 59.5651 229.656 59.7109L229.109 61.1797C228.792 61.0495 228.466 60.9401 228.133 60.8516C227.799 60.763 227.479 60.7188 227.172 60.7188C226.667 60.7188 226.245 60.8307 225.906 61.0547C225.573 61.2786 225.323 61.612 225.156 62.0547C224.995 62.4974 224.914 63.0469 224.914 63.7031C224.914 64.3385 224.997 64.875 225.164 65.3125C225.331 65.7448 225.578 66.0729 225.906 66.2969C226.234 66.5156 226.638 66.625 227.117 66.625C227.591 66.625 228.016 66.5677 228.391 66.4531C228.766 66.3385 229.12 66.1901 229.453 66.0078V67.6016C229.125 67.7891 228.773 67.9271 228.398 68.0156C228.023 68.1094 227.562 68.1562 227.016 68.1562ZM239.023 59.3516V68H237.578L237.328 66.8359H237.227C237.044 67.1328 236.812 67.3802 236.531 67.5781C236.25 67.7708 235.938 67.9141 235.594 68.0078C235.25 68.1068 234.888 68.1562 234.508 68.1562C233.857 68.1562 233.299 68.0469 232.836 67.8281C232.378 67.6042 232.026 67.2604 231.781 66.7969C231.536 66.3333 231.414 65.7344 231.414 65V59.3516H233.258V64.6562C233.258 65.3281 233.393 65.8307 233.664 66.1641C233.94 66.4974 234.367 66.6641 234.945 66.6641C235.503 66.6641 235.945 66.5495 236.273 66.3203C236.602 66.0911 236.833 65.7526 236.969 65.3047C237.109 64.8568 237.18 64.3073 237.18 63.6562V59.3516H239.023ZM247.469 65.5312C247.469 66.099 247.331 66.5781 247.055 66.9688C246.779 67.3594 246.375 67.6562 245.844 67.8594C245.318 68.0573 244.672 68.1562 243.906 68.1562C243.302 68.1562 242.781 68.112 242.344 68.0234C241.911 67.9401 241.503 67.8099 241.117 67.6328V66.0469C241.529 66.2396 241.99 66.4062 242.5 66.5469C243.016 66.6875 243.503 66.7578 243.961 66.7578C244.565 66.7578 245 66.6641 245.266 66.4766C245.531 66.2839 245.664 66.0286 245.664 65.7109C245.664 65.5234 245.609 65.3568 245.5 65.2109C245.396 65.0599 245.198 64.9062 244.906 64.75C244.62 64.5885 244.198 64.3958 243.641 64.1719C243.094 63.9531 242.633 63.7344 242.258 63.5156C241.883 63.2969 241.599 63.0339 241.406 62.7266C241.214 62.4141 241.117 62.0156 241.117 61.5312C241.117 60.7656 241.419 60.1849 242.023 59.7891C242.633 59.388 243.438 59.1875 244.438 59.1875C244.969 59.1875 245.469 59.2422 245.938 59.3516C246.411 59.4557 246.875 59.6094 247.328 59.8125L246.75 61.1953C246.359 61.0234 245.966 60.8828 245.57 60.7734C245.18 60.6589 244.781 60.6016 244.375 60.6016C243.901 60.6016 243.539 60.6745 243.289 60.8203C243.044 60.9661 242.922 61.1745 242.922 61.4453C242.922 61.6484 242.982 61.8203 243.102 61.9609C243.221 62.1016 243.427 62.2422 243.719 62.3828C244.016 62.5234 244.427 62.6979 244.953 62.9062C245.469 63.1042 245.914 63.3125 246.289 63.5312C246.669 63.7448 246.961 64.0078 247.164 64.3203C247.367 64.6328 247.469 65.0365 247.469 65.5312ZM252.672 66.6719C252.911 66.6719 253.148 66.651 253.383 66.6094C253.617 66.5625 253.831 66.5078 254.023 66.4453V67.8359C253.82 67.9245 253.557 68 253.234 68.0625C252.911 68.125 252.576 68.1562 252.227 68.1562C251.737 68.1562 251.297 68.0755 250.906 67.9141C250.516 67.7474 250.206 67.4635 249.977 67.0625C249.747 66.6615 249.633 66.1068 249.633 65.3984V60.75H248.453V59.9297L249.719 59.2812L250.32 57.4297H251.477V59.3516H253.953V60.75H251.477V65.375C251.477 65.8125 251.586 66.138 251.805 66.3516C252.023 66.5651 252.312 66.6719 252.672 66.6719ZM263.438 63.6562C263.438 64.375 263.344 65.013 263.156 65.5703C262.969 66.1276 262.695 66.599 262.336 66.9844C261.977 67.3646 261.544 67.6562 261.039 67.8594C260.534 68.0573 259.964 68.1562 259.328 68.1562C258.734 68.1562 258.19 68.0573 257.695 67.8594C257.201 67.6562 256.771 67.3646 256.406 66.9844C256.047 66.599 255.768 66.1276 255.57 65.5703C255.372 65.013 255.273 64.375 255.273 63.6562C255.273 62.7031 255.438 61.8958 255.766 61.2344C256.099 60.5677 256.573 60.0599 257.188 59.7109C257.802 59.362 258.534 59.1875 259.383 59.1875C260.18 59.1875 260.883 59.362 261.492 59.7109C262.102 60.0599 262.578 60.5677 262.922 61.2344C263.266 61.901 263.438 62.7083 263.438 63.6562ZM257.164 63.6562C257.164 64.2865 257.24 64.8255 257.391 65.2734C257.547 65.7214 257.786 66.0651 258.109 66.3047C258.432 66.5391 258.849 66.6562 259.359 66.6562C259.87 66.6562 260.286 66.5391 260.609 66.3047C260.932 66.0651 261.169 65.7214 261.32 65.2734C261.471 64.8255 261.547 64.2865 261.547 63.6562C261.547 63.026 261.471 62.4922 261.32 62.0547C261.169 61.612 260.932 61.276 260.609 61.0469C260.286 60.8125 259.867 60.6953 259.352 60.6953C258.591 60.6953 258.036 60.9505 257.688 61.4609C257.339 61.9714 257.164 62.7031 257.164 63.6562ZM275.32 59.1875C276.289 59.1875 277.018 59.4375 277.508 59.9375C278.003 60.4375 278.25 61.2396 278.25 62.3438V68H276.414V62.6719C276.414 62.0156 276.286 61.5208 276.031 61.1875C275.776 60.8542 275.388 60.6875 274.867 60.6875C274.138 60.6875 273.612 60.9219 273.289 61.3906C272.971 61.8542 272.812 62.5286 272.812 63.4141V68H270.977V62.6719C270.977 62.2344 270.919 61.8698 270.805 61.5781C270.695 61.2812 270.526 61.0599 270.297 60.9141C270.068 60.763 269.779 60.6875 269.43 60.6875C268.924 60.6875 268.521 60.8021 268.219 61.0312C267.922 61.2604 267.708 61.599 267.578 62.0469C267.448 62.4896 267.383 63.0339 267.383 63.6797V68H265.547V59.3516H266.977L267.234 60.5156H267.336C267.513 60.2135 267.732 59.9661 267.992 59.7734C268.258 59.5755 268.552 59.4297 268.875 59.3359C269.198 59.237 269.534 59.1875 269.883 59.1875C270.529 59.1875 271.073 59.3021 271.516 59.5312C271.958 59.7552 272.289 60.099 272.508 60.5625H272.648C272.919 60.0938 273.297 59.7474 273.781 59.5234C274.266 59.2995 274.779 59.1875 275.32 59.1875ZM284.258 59.1875C285.029 59.1875 285.69 59.3464 286.242 59.6641C286.794 59.9818 287.219 60.4323 287.516 61.0156C287.812 61.599 287.961 62.2969 287.961 63.1094V64.0938H282.188C282.208 64.9323 282.432 65.5781 282.859 66.0312C283.292 66.4844 283.896 66.7109 284.672 66.7109C285.224 66.7109 285.719 66.6589 286.156 66.5547C286.599 66.4453 287.055 66.2865 287.523 66.0781V67.5703C287.091 67.7734 286.651 67.9219 286.203 68.0156C285.755 68.1094 285.219 68.1562 284.594 68.1562C283.745 68.1562 282.997 67.9922 282.352 67.6641C281.711 67.3307 281.208 66.8359 280.844 66.1797C280.484 65.5234 280.305 64.7083 280.305 63.7344C280.305 62.7656 280.469 61.9427 280.797 61.2656C281.125 60.5885 281.586 60.0729 282.18 59.7188C282.773 59.3646 283.466 59.1875 284.258 59.1875ZM284.258 60.5703C283.68 60.5703 283.211 60.7578 282.852 61.1328C282.497 61.5078 282.289 62.0573 282.227 62.7812H286.164C286.159 62.349 286.086 61.9661 285.945 61.6328C285.81 61.2995 285.602 61.0391 285.32 60.8516C285.044 60.6641 284.69 60.5703 284.258 60.5703ZM294.414 59.1875C294.56 59.1875 294.719 59.1953 294.891 59.2109C295.062 59.2266 295.211 59.2474 295.336 59.2734L295.164 60.9922C295.055 60.9609 294.919 60.9375 294.758 60.9219C294.602 60.9062 294.461 60.8984 294.336 60.8984C294.008 60.8984 293.695 60.9531 293.398 61.0625C293.102 61.1667 292.839 61.3281 292.609 61.5469C292.38 61.7604 292.201 62.0286 292.07 62.3516C291.94 62.6745 291.875 63.0495 291.875 63.4766V68H290.031V59.3516H291.469L291.719 60.875H291.805C291.977 60.5677 292.19 60.2865 292.445 60.0312C292.701 59.776 292.992 59.5729 293.32 59.4219C293.654 59.2656 294.018 59.1875 294.414 59.1875ZM302.75 65.5312C302.75 66.099 302.612 66.5781 302.336 66.9688C302.06 67.3594 301.656 67.6562 301.125 67.8594C300.599 68.0573 299.953 68.1562 299.188 68.1562C298.583 68.1562 298.062 68.112 297.625 68.0234C297.193 67.9401 296.784 67.8099 296.398 67.6328V66.0469C296.81 66.2396 297.271 66.4062 297.781 66.5469C298.297 66.6875 298.784 66.7578 299.242 66.7578C299.846 66.7578 300.281 66.6641 300.547 66.4766C300.812 66.2839 300.945 66.0286 300.945 65.7109C300.945 65.5234 300.891 65.3568 300.781 65.2109C300.677 65.0599 300.479 64.9062 300.188 64.75C299.901 64.5885 299.479 64.3958 298.922 64.1719C298.375 63.9531 297.914 63.7344 297.539 63.5156C297.164 63.2969 296.88 63.0339 296.688 62.7266C296.495 62.4141 296.398 62.0156 296.398 61.5312C296.398 60.7656 296.701 60.1849 297.305 59.7891C297.914 59.388 298.719 59.1875 299.719 59.1875C300.25 59.1875 300.75 59.2422 301.219 59.3516C301.693 59.4557 302.156 59.6094 302.609 59.8125L302.031 61.1953C301.641 61.0234 301.247 60.8828 300.852 60.7734C300.461 60.6589 300.062 60.6016 299.656 60.6016C299.182 60.6016 298.82 60.6745 298.57 60.8203C298.326 60.9661 298.203 61.1745 298.203 61.4453C298.203 61.6484 298.263 61.8203 298.383 61.9609C298.503 62.1016 298.708 62.2422 299 62.3828C299.297 62.5234 299.708 62.6979 300.234 62.9062C300.75 63.1042 301.195 63.3125 301.57 63.5312C301.951 63.7448 302.242 64.0078 302.445 64.3203C302.648 64.6328 302.75 65.0365 302.75 65.5312ZM315.961 67.9922L314.867 63.9688C314.815 63.7708 314.753 63.5312 314.68 63.25C314.607 62.9688 314.534 62.6797 314.461 62.3828C314.388 62.0807 314.32 61.8021 314.258 61.5469C314.201 61.2917 314.156 61.0938 314.125 60.9531H314.062C314.036 61.0938 313.995 61.2917 313.938 61.5469C313.88 61.8021 313.815 62.0807 313.742 62.3828C313.669 62.6849 313.596 62.9792 313.523 63.2656C313.456 63.5521 313.393 63.7969 313.336 64L312.188 67.9922H310.172L307.75 59.3438H309.609L310.734 63.6406C310.807 63.9323 310.878 64.2474 310.945 64.5859C311.018 64.9245 311.081 65.2474 311.133 65.5547C311.185 65.862 311.224 66.1146 311.25 66.3125H311.312C311.333 66.1719 311.362 65.9948 311.398 65.7812C311.435 65.5625 311.477 65.3359 311.523 65.1016C311.57 64.862 311.617 64.638 311.664 64.4297C311.711 64.2161 311.755 64.0443 311.797 63.9141L313.125 59.3438H315.133L316.406 63.9141C316.464 64.112 316.526 64.362 316.594 64.6641C316.661 64.9609 316.721 65.2604 316.773 65.5625C316.831 65.8594 316.867 66.1068 316.883 66.3047H316.945C316.966 66.1276 317.003 65.888 317.055 65.5859C317.112 65.2786 317.177 64.9531 317.25 64.6094C317.323 64.2604 317.398 63.9375 317.477 63.6406L318.625 59.3438H320.453L318.016 67.9922H315.961ZM323.773 59.3516V68H321.938V59.3516H323.773ZM322.867 56.0391C323.148 56.0391 323.391 56.1146 323.594 56.2656C323.802 56.4167 323.906 56.6771 323.906 57.0469C323.906 57.4115 323.802 57.6719 323.594 57.8281C323.391 57.9792 323.148 58.0547 322.867 58.0547C322.576 58.0547 322.328 57.9792 322.125 57.8281C321.927 57.6719 321.828 57.4115 321.828 57.0469C321.828 56.6771 321.927 56.4167 322.125 56.2656C322.328 56.1146 322.576 56.0391 322.867 56.0391ZM329.625 66.6719C329.865 66.6719 330.102 66.651 330.336 66.6094C330.57 66.5625 330.784 66.5078 330.977 66.4453V67.8359C330.773 67.9245 330.51 68 330.188 68.0625C329.865 68.125 329.529 68.1562 329.18 68.1562C328.69 68.1562 328.25 68.0755 327.859 67.9141C327.469 67.7474 327.159 67.4635 326.93 67.0625C326.701 66.6615 326.586 66.1068 326.586 65.3984V60.75H325.406V59.9297L326.672 59.2812L327.273 57.4297H328.43V59.3516H330.906V60.75H328.43V65.375C328.43 65.8125 328.539 66.138 328.758 66.3516C328.977 66.5651 329.266 66.6719 329.625 66.6719ZM334.57 55.8438V58.8984C334.57 59.2161 334.56 59.526 334.539 59.8281C334.523 60.1302 334.505 60.3646 334.484 60.5312H334.586C334.768 60.2292 334.992 59.9818 335.258 59.7891C335.523 59.5911 335.82 59.4427 336.148 59.3438C336.482 59.2448 336.836 59.1953 337.211 59.1953C337.872 59.1953 338.435 59.3073 338.898 59.5312C339.362 59.75 339.716 60.0911 339.961 60.5547C340.211 61.0182 340.336 61.6198 340.336 62.3594V68H338.5V62.7031C338.5 62.0312 338.362 61.5286 338.086 61.1953C337.81 60.8568 337.383 60.6875 336.805 60.6875C336.247 60.6875 335.805 60.8047 335.477 61.0391C335.154 61.2682 334.922 61.6094 334.781 62.0625C334.641 62.5104 334.57 63.0573 334.57 63.7031V68H332.734V55.8438H334.57ZM350.281 66.6719C350.521 66.6719 350.758 66.651 350.992 66.6094C351.227 66.5625 351.44 66.5078 351.633 66.4453V67.8359C351.43 67.9245 351.167 68 350.844 68.0625C350.521 68.125 350.185 68.1562 349.836 68.1562C349.346 68.1562 348.906 68.0755 348.516 67.9141C348.125 67.7474 347.815 67.4635 347.586 67.0625C347.357 66.6615 347.242 66.1068 347.242 65.3984V60.75H346.062V59.9297L347.328 59.2812L347.93 57.4297H349.086V59.3516H351.562V60.75H349.086V65.375C349.086 65.8125 349.195 66.138 349.414 66.3516C349.633 66.5651 349.922 66.6719 350.281 66.6719ZM355.227 55.8438V58.8984C355.227 59.2161 355.216 59.526 355.195 59.8281C355.18 60.1302 355.161 60.3646 355.141 60.5312H355.242C355.424 60.2292 355.648 59.9818 355.914 59.7891C356.18 59.5911 356.477 59.4427 356.805 59.3438C357.138 59.2448 357.492 59.1953 357.867 59.1953C358.529 59.1953 359.091 59.3073 359.555 59.5312C360.018 59.75 360.372 60.0911 360.617 60.5547C360.867 61.0182 360.992 61.6198 360.992 62.3594V68H359.156V62.7031C359.156 62.0312 359.018 61.5286 358.742 61.1953C358.466 60.8568 358.039 60.6875 357.461 60.6875C356.904 60.6875 356.461 60.8047 356.133 61.0391C355.81 61.2682 355.578 61.6094 355.438 62.0625C355.297 62.5104 355.227 63.0573 355.227 63.7031V68H353.391V55.8438H355.227ZM367.008 59.1875C367.779 59.1875 368.44 59.3464 368.992 59.6641C369.544 59.9818 369.969 60.4323 370.266 61.0156C370.562 61.599 370.711 62.2969 370.711 63.1094V64.0938H364.938C364.958 64.9323 365.182 65.5781 365.609 66.0312C366.042 66.4844 366.646 66.7109 367.422 66.7109C367.974 66.7109 368.469 66.6589 368.906 66.5547C369.349 66.4453 369.805 66.2865 370.273 66.0781V67.5703C369.841 67.7734 369.401 67.9219 368.953 68.0156C368.505 68.1094 367.969 68.1562 367.344 68.1562C366.495 68.1562 365.747 67.9922 365.102 67.6641C364.461 67.3307 363.958 66.8359 363.594 66.1797C363.234 65.5234 363.055 64.7083 363.055 63.7344C363.055 62.7656 363.219 61.9427 363.547 61.2656C363.875 60.5885 364.336 60.0729 364.93 59.7188C365.523 59.3646 366.216 59.1875 367.008 59.1875ZM367.008 60.5703C366.43 60.5703 365.961 60.7578 365.602 61.1328C365.247 61.5078 365.039 62.0573 364.977 62.7812H368.914C368.909 62.349 368.836 61.9661 368.695 61.6328C368.56 61.2995 368.352 61.0391 368.07 60.8516C367.794 60.6641 367.44 60.5703 367.008 60.5703ZM378.773 55.8438V58.7734C378.773 59.112 378.763 59.4453 378.742 59.7734C378.727 60.0964 378.711 60.349 378.695 60.5312H378.773C379.008 60.1562 379.333 59.8411 379.75 59.5859C380.172 59.3255 380.711 59.1953 381.367 59.1953C382.393 59.1953 383.219 59.5729 383.844 60.3281C384.469 61.0781 384.781 62.1901 384.781 63.6641C384.781 64.6432 384.638 65.4661 384.352 66.1328C384.065 66.7995 383.661 67.3047 383.141 67.6484C382.625 67.987 382.018 68.1562 381.32 68.1562C380.664 68.1562 380.133 68.0365 379.727 67.7969C379.326 67.5521 379.01 67.2682 378.781 66.9453H378.648L378.312 68H376.938V55.8438H378.773ZM380.883 60.6875C380.362 60.6875 379.948 60.7917 379.641 61C379.339 61.2083 379.12 61.5208 378.984 61.9375C378.849 62.349 378.779 62.8724 378.773 63.5078V63.6719C378.773 64.6354 378.924 65.3724 379.227 65.8828C379.534 66.3932 380.091 66.6484 380.898 66.6484C381.539 66.6484 382.031 66.3906 382.375 65.875C382.719 65.3542 382.891 64.6094 382.891 63.6406C382.891 62.6615 382.719 61.9245 382.375 61.4297C382.036 60.9349 381.539 60.6875 380.883 60.6875ZM390.352 59.1875C391.122 59.1875 391.784 59.3464 392.336 59.6641C392.888 59.9818 393.312 60.4323 393.609 61.0156C393.906 61.599 394.055 62.2969 394.055 63.1094V64.0938H388.281C388.302 64.9323 388.526 65.5781 388.953 66.0312C389.385 66.4844 389.99 66.7109 390.766 66.7109C391.318 66.7109 391.812 66.6589 392.25 66.5547C392.693 66.4453 393.148 66.2865 393.617 66.0781V67.5703C393.185 67.7734 392.745 67.9219 392.297 68.0156C391.849 68.1094 391.312 68.1562 390.688 68.1562C389.839 68.1562 389.091 67.9922 388.445 67.6641C387.805 67.3307 387.302 66.8359 386.938 66.1797C386.578 65.5234 386.398 64.7083 386.398 63.7344C386.398 62.7656 386.562 61.9427 386.891 61.2656C387.219 60.5885 387.68 60.0729 388.273 59.7188C388.867 59.3646 389.56 59.1875 390.352 59.1875ZM390.352 60.5703C389.773 60.5703 389.305 60.7578 388.945 61.1328C388.591 61.5078 388.383 62.0573 388.32 62.7812H392.258C392.253 62.349 392.18 61.9661 392.039 61.6328C391.904 61.2995 391.695 61.0391 391.414 60.8516C391.138 60.6641 390.784 60.5703 390.352 60.5703ZM401.938 65.5312C401.938 66.099 401.799 66.5781 401.523 66.9688C401.247 67.3594 400.844 67.6562 400.312 67.8594C399.786 68.0573 399.141 68.1562 398.375 68.1562C397.771 68.1562 397.25 68.112 396.812 68.0234C396.38 67.9401 395.971 67.8099 395.586 67.6328V66.0469C395.997 66.2396 396.458 66.4062 396.969 66.5469C397.484 66.6875 397.971 66.7578 398.43 66.7578C399.034 66.7578 399.469 66.6641 399.734 66.4766C400 66.2839 400.133 66.0286 400.133 65.7109C400.133 65.5234 400.078 65.3568 399.969 65.2109C399.865 65.0599 399.667 64.9062 399.375 64.75C399.089 64.5885 398.667 64.3958 398.109 64.1719C397.562 63.9531 397.102 63.7344 396.727 63.5156C396.352 63.2969 396.068 63.0339 395.875 62.7266C395.682 62.4141 395.586 62.0156 395.586 61.5312C395.586 60.7656 395.888 60.1849 396.492 59.7891C397.102 59.388 397.906 59.1875 398.906 59.1875C399.438 59.1875 399.938 59.2422 400.406 59.3516C400.88 59.4557 401.344 59.6094 401.797 59.8125L401.219 61.1953C400.828 61.0234 400.435 60.8828 400.039 60.7734C399.648 60.6589 399.25 60.6016 398.844 60.6016C398.37 60.6016 398.008 60.6745 397.758 60.8203C397.513 60.9661 397.391 61.1745 397.391 61.4453C397.391 61.6484 397.451 61.8203 397.57 61.9609C397.69 62.1016 397.896 62.2422 398.188 62.3828C398.484 62.5234 398.896 62.6979 399.422 62.9062C399.938 63.1042 400.383 63.3125 400.758 63.5312C401.138 63.7448 401.43 64.0078 401.633 64.3203C401.836 64.6328 401.938 65.0365 401.938 65.5312ZM407.141 66.6719C407.38 66.6719 407.617 66.651 407.852 66.6094C408.086 66.5625 408.299 66.5078 408.492 66.4453V67.8359C408.289 67.9245 408.026 68 407.703 68.0625C407.38 68.125 407.044 68.1562 406.695 68.1562C406.206 68.1562 405.766 68.0755 405.375 67.9141C404.984 67.7474 404.674 67.4635 404.445 67.0625C404.216 66.6615 404.102 66.1068 404.102 65.3984V60.75H402.922V59.9297L404.188 59.2812L404.789 57.4297H405.945V59.3516H408.422V60.75H405.945V65.375C405.945 65.8125 406.055 66.138 406.273 66.3516C406.492 66.5651 406.781 66.6719 407.141 66.6719ZM409.984 67.0312C409.984 66.6042 410.094 66.3047 410.312 66.1328C410.536 65.9557 410.807 65.8672 411.125 65.8672C411.443 65.8672 411.714 65.9557 411.938 66.1328C412.167 66.3047 412.281 66.6042 412.281 67.0312C412.281 67.4479 412.167 67.75 411.938 67.9375C411.714 68.1198 411.443 68.2109 411.125 68.2109C410.807 68.2109 410.536 68.1198 410.312 67.9375C410.094 67.75 409.984 67.4479 409.984 67.0312Z" fill="white"/>
<g filter="url(#filter1_d_2880_948)">
<rect x="32" y="120" width="500" height="68" rx="4" fill="white"/>
</g>
<g clip-path="url(#clip0_2880_948)">
<path d="M52.775 153.654C52.775 153.654 56.775 145.654 63.775 145.654C70.775 145.654 74.775 153.654 74.775 153.654C74.775 153.654 70.775 161.654 63.775 161.654C56.775 161.654 52.775 153.654 52.775 153.654Z" stroke="#0A2640" stroke-width="2" stroke-linecap="round" stroke-linejoin="round"/>
<path d="M63.775 156.654C65.4319 156.654 66.775 155.311 66.775 153.654C66.775 151.997 65.4319 150.654 63.775 150.654C62.1182 150.654 60.775 151.997 60.775 153.654C60.775 155.311 62.1182 156.654 63.775 156.654Z" stroke="#0A2640" stroke-width="2" stroke-linecap="round" stroke-linejoin="round"/>
</g>
<path d="M105.578 160L104.461 156.828H100.094L98.9766 160H97L101.25 148.531H103.328L107.57 160H105.578ZM103.977 155.219L102.891 152.094C102.849 151.958 102.789 151.768 102.711 151.523C102.633 151.273 102.555 151.021 102.477 150.766C102.398 150.505 102.333 150.286 102.281 150.109C102.229 150.323 102.164 150.562 102.086 150.828C102.013 151.089 101.94 151.333 101.867 151.562C101.799 151.792 101.747 151.969 101.711 152.094L100.617 155.219H103.977ZM111.797 160.156C110.766 160.156 109.938 159.781 109.312 159.031C108.693 158.276 108.383 157.164 108.383 155.695C108.383 154.211 108.698 153.089 109.328 152.328C109.964 151.568 110.799 151.188 111.836 151.188C112.273 151.188 112.656 151.247 112.984 151.367C113.312 151.482 113.594 151.638 113.828 151.836C114.068 152.034 114.271 152.255 114.438 152.5H114.523C114.497 152.339 114.466 152.107 114.43 151.805C114.398 151.497 114.383 151.214 114.383 150.953V147.844H116.227V160H114.789L114.461 158.82H114.383C114.227 159.07 114.029 159.297 113.789 159.5C113.555 159.698 113.273 159.857 112.945 159.977C112.622 160.096 112.24 160.156 111.797 160.156ZM112.312 158.664C113.099 158.664 113.654 158.438 113.977 157.984C114.299 157.531 114.466 156.852 114.477 155.945V155.703C114.477 154.734 114.32 153.992 114.008 153.477C113.695 152.956 113.125 152.695 112.297 152.695C111.635 152.695 111.13 152.964 110.781 153.5C110.438 154.031 110.266 154.773 110.266 155.727C110.266 156.68 110.438 157.409 110.781 157.914C111.13 158.414 111.641 158.664 112.312 158.664ZM120.836 160L117.547 151.352H119.492L121.273 156.43C121.388 156.753 121.492 157.102 121.586 157.477C121.68 157.852 121.745 158.167 121.781 158.422H121.844C121.88 158.156 121.951 157.839 122.055 157.469C122.159 157.094 122.266 156.747 122.375 156.43L124.156 151.352H126.094L122.805 160H120.836ZM129.242 151.352V160H127.406V151.352H129.242ZM128.336 148.039C128.617 148.039 128.859 148.115 129.062 148.266C129.271 148.417 129.375 148.677 129.375 149.047C129.375 149.411 129.271 149.672 129.062 149.828C128.859 149.979 128.617 150.055 128.336 150.055C128.044 150.055 127.797 149.979 127.594 149.828C127.396 149.672 127.297 149.411 127.297 149.047C127.297 148.677 127.396 148.417 127.594 148.266C127.797 148.115 128.044 148.039 128.336 148.039ZM137.688 157.531C137.688 158.099 137.549 158.578 137.273 158.969C136.997 159.359 136.594 159.656 136.062 159.859C135.536 160.057 134.891 160.156 134.125 160.156C133.521 160.156 133 160.112 132.562 160.023C132.13 159.94 131.721 159.81 131.336 159.633V158.047C131.747 158.24 132.208 158.406 132.719 158.547C133.234 158.688 133.721 158.758 134.18 158.758C134.784 158.758 135.219 158.664 135.484 158.477C135.75 158.284 135.883 158.029 135.883 157.711C135.883 157.523 135.828 157.357 135.719 157.211C135.615 157.06 135.417 156.906 135.125 156.75C134.839 156.589 134.417 156.396 133.859 156.172C133.312 155.953 132.852 155.734 132.477 155.516C132.102 155.297 131.818 155.034 131.625 154.727C131.432 154.414 131.336 154.016 131.336 153.531C131.336 152.766 131.638 152.185 132.242 151.789C132.852 151.388 133.656 151.188 134.656 151.188C135.188 151.188 135.688 151.242 136.156 151.352C136.63 151.456 137.094 151.609 137.547 151.812L136.969 153.195C136.578 153.023 136.185 152.883 135.789 152.773C135.398 152.659 135 152.602 134.594 152.602C134.12 152.602 133.758 152.674 133.508 152.82C133.263 152.966 133.141 153.174 133.141 153.445C133.141 153.648 133.201 153.82 133.32 153.961C133.44 154.102 133.646 154.242 133.938 154.383C134.234 154.523 134.646 154.698 135.172 154.906C135.688 155.104 136.133 155.312 136.508 155.531C136.888 155.745 137.18 156.008 137.383 156.32C137.586 156.633 137.688 157.036 137.688 157.531ZM147.328 155.656C147.328 156.375 147.234 157.013 147.047 157.57C146.859 158.128 146.586 158.599 146.227 158.984C145.867 159.365 145.435 159.656 144.93 159.859C144.424 160.057 143.854 160.156 143.219 160.156C142.625 160.156 142.081 160.057 141.586 159.859C141.091 159.656 140.661 159.365 140.297 158.984C139.938 158.599 139.659 158.128 139.461 157.57C139.263 157.013 139.164 156.375 139.164 155.656C139.164 154.703 139.328 153.896 139.656 153.234C139.99 152.568 140.464 152.06 141.078 151.711C141.693 151.362 142.424 151.188 143.273 151.188C144.07 151.188 144.773 151.362 145.383 151.711C145.992 152.06 146.469 152.568 146.812 153.234C147.156 153.901 147.328 154.708 147.328 155.656ZM141.055 155.656C141.055 156.286 141.13 156.826 141.281 157.273C141.438 157.721 141.677 158.065 142 158.305C142.323 158.539 142.74 158.656 143.25 158.656C143.76 158.656 144.177 158.539 144.5 158.305C144.823 158.065 145.06 157.721 145.211 157.273C145.362 156.826 145.438 156.286 145.438 155.656C145.438 155.026 145.362 154.492 145.211 154.055C145.06 153.612 144.823 153.276 144.5 153.047C144.177 152.812 143.758 152.695 143.242 152.695C142.482 152.695 141.927 152.951 141.578 153.461C141.229 153.971 141.055 154.703 141.055 155.656ZM153.82 151.188C153.966 151.188 154.125 151.195 154.297 151.211C154.469 151.227 154.617 151.247 154.742 151.273L154.57 152.992C154.461 152.961 154.326 152.938 154.164 152.922C154.008 152.906 153.867 152.898 153.742 152.898C153.414 152.898 153.102 152.953 152.805 153.062C152.508 153.167 152.245 153.328 152.016 153.547C151.786 153.76 151.607 154.029 151.477 154.352C151.346 154.674 151.281 155.049 151.281 155.477V160H149.438V151.352H150.875L151.125 152.875H151.211C151.383 152.568 151.596 152.286 151.852 152.031C152.107 151.776 152.398 151.573 152.727 151.422C153.06 151.266 153.424 151.188 153.82 151.188ZM166.312 157.531C166.312 158.099 166.174 158.578 165.898 158.969C165.622 159.359 165.219 159.656 164.688 159.859C164.161 160.057 163.516 160.156 162.75 160.156C162.146 160.156 161.625 160.112 161.188 160.023C160.755 159.94 160.346 159.81 159.961 159.633V158.047C160.372 158.24 160.833 158.406 161.344 158.547C161.859 158.688 162.346 158.758 162.805 158.758C163.409 158.758 163.844 158.664 164.109 158.477C164.375 158.284 164.508 158.029 164.508 157.711C164.508 157.523 164.453 157.357 164.344 157.211C164.24 157.06 164.042 156.906 163.75 156.75C163.464 156.589 163.042 156.396 162.484 156.172C161.938 155.953 161.477 155.734 161.102 155.516C160.727 155.297 160.443 155.034 160.25 154.727C160.057 154.414 159.961 154.016 159.961 153.531C159.961 152.766 160.263 152.185 160.867 151.789C161.477 151.388 162.281 151.188 163.281 151.188C163.812 151.188 164.312 151.242 164.781 151.352C165.255 151.456 165.719 151.609 166.172 151.812L165.594 153.195C165.203 153.023 164.81 152.883 164.414 152.773C164.023 152.659 163.625 152.602 163.219 152.602C162.745 152.602 162.383 152.674 162.133 152.82C161.888 152.966 161.766 153.174 161.766 153.445C161.766 153.648 161.826 153.82 161.945 153.961C162.065 154.102 162.271 154.242 162.562 154.383C162.859 154.523 163.271 154.698 163.797 154.906C164.312 155.104 164.758 155.312 165.133 155.531C165.513 155.745 165.805 156.008 166.008 156.32C166.211 156.633 166.312 157.036 166.312 157.531ZM175.836 151.352V160H174.391L174.141 158.836H174.039C173.857 159.133 173.625 159.38 173.344 159.578C173.062 159.771 172.75 159.914 172.406 160.008C172.062 160.107 171.701 160.156 171.32 160.156C170.669 160.156 170.112 160.047 169.648 159.828C169.19 159.604 168.839 159.26 168.594 158.797C168.349 158.333 168.227 157.734 168.227 157V151.352H170.07V156.656C170.07 157.328 170.206 157.831 170.477 158.164C170.753 158.497 171.18 158.664 171.758 158.664C172.315 158.664 172.758 158.549 173.086 158.32C173.414 158.091 173.646 157.753 173.781 157.305C173.922 156.857 173.992 156.307 173.992 155.656V151.352H175.836ZM181.953 160.156C181.135 160.156 180.427 159.997 179.828 159.68C179.229 159.362 178.768 158.875 178.445 158.219C178.122 157.562 177.961 156.729 177.961 155.719C177.961 154.667 178.138 153.807 178.492 153.141C178.846 152.474 179.336 151.982 179.961 151.664C180.591 151.346 181.312 151.188 182.125 151.188C182.641 151.188 183.107 151.24 183.523 151.344C183.945 151.443 184.302 151.565 184.594 151.711L184.047 153.18C183.729 153.049 183.404 152.94 183.07 152.852C182.737 152.763 182.417 152.719 182.109 152.719C181.604 152.719 181.182 152.831 180.844 153.055C180.51 153.279 180.26 153.612 180.094 154.055C179.932 154.497 179.852 155.047 179.852 155.703C179.852 156.339 179.935 156.875 180.102 157.312C180.268 157.745 180.516 158.073 180.844 158.297C181.172 158.516 181.576 158.625 182.055 158.625C182.529 158.625 182.953 158.568 183.328 158.453C183.703 158.339 184.057 158.19 184.391 158.008V159.602C184.062 159.789 183.711 159.927 183.336 160.016C182.961 160.109 182.5 160.156 181.953 160.156ZM189.906 160.156C189.089 160.156 188.38 159.997 187.781 159.68C187.182 159.362 186.721 158.875 186.398 158.219C186.076 157.562 185.914 156.729 185.914 155.719C185.914 154.667 186.091 153.807 186.445 153.141C186.799 152.474 187.289 151.982 187.914 151.664C188.544 151.346 189.266 151.188 190.078 151.188C190.594 151.188 191.06 151.24 191.477 151.344C191.898 151.443 192.255 151.565 192.547 151.711L192 153.18C191.682 153.049 191.357 152.94 191.023 152.852C190.69 152.763 190.37 152.719 190.062 152.719C189.557 152.719 189.135 152.831 188.797 153.055C188.464 153.279 188.214 153.612 188.047 154.055C187.885 154.497 187.805 155.047 187.805 155.703C187.805 156.339 187.888 156.875 188.055 157.312C188.221 157.745 188.469 158.073 188.797 158.297C189.125 158.516 189.529 158.625 190.008 158.625C190.482 158.625 190.906 158.568 191.281 158.453C191.656 158.339 192.01 158.19 192.344 158.008V159.602C192.016 159.789 191.664 159.927 191.289 160.016C190.914 160.109 190.453 160.156 189.906 160.156ZM197.82 151.188C198.591 151.188 199.253 151.346 199.805 151.664C200.357 151.982 200.781 152.432 201.078 153.016C201.375 153.599 201.523 154.297 201.523 155.109V156.094H195.75C195.771 156.932 195.995 157.578 196.422 158.031C196.854 158.484 197.458 158.711 198.234 158.711C198.786 158.711 199.281 158.659 199.719 158.555C200.161 158.445 200.617 158.286 201.086 158.078V159.57C200.654 159.773 200.214 159.922 199.766 160.016C199.318 160.109 198.781 160.156 198.156 160.156C197.307 160.156 196.56 159.992 195.914 159.664C195.273 159.331 194.771 158.836 194.406 158.18C194.047 157.523 193.867 156.708 193.867 155.734C193.867 154.766 194.031 153.943 194.359 153.266C194.688 152.589 195.148 152.073 195.742 151.719C196.336 151.365 197.029 151.188 197.82 151.188ZM197.82 152.57C197.242 152.57 196.773 152.758 196.414 153.133C196.06 153.508 195.852 154.057 195.789 154.781H199.727C199.721 154.349 199.648 153.966 199.508 153.633C199.372 153.299 199.164 153.039 198.883 152.852C198.607 152.664 198.253 152.57 197.82 152.57ZM209.406 157.531C209.406 158.099 209.268 158.578 208.992 158.969C208.716 159.359 208.312 159.656 207.781 159.859C207.255 160.057 206.609 160.156 205.844 160.156C205.24 160.156 204.719 160.112 204.281 160.023C203.849 159.94 203.44 159.81 203.055 159.633V158.047C203.466 158.24 203.927 158.406 204.438 158.547C204.953 158.688 205.44 158.758 205.898 158.758C206.503 158.758 206.938 158.664 207.203 158.477C207.469 158.284 207.602 158.029 207.602 157.711C207.602 157.523 207.547 157.357 207.438 157.211C207.333 157.06 207.135 156.906 206.844 156.75C206.557 156.589 206.135 156.396 205.578 156.172C205.031 155.953 204.57 155.734 204.195 155.516C203.82 155.297 203.536 155.034 203.344 154.727C203.151 154.414 203.055 154.016 203.055 153.531C203.055 152.766 203.357 152.185 203.961 151.789C204.57 151.388 205.375 151.188 206.375 151.188C206.906 151.188 207.406 151.242 207.875 151.352C208.349 151.456 208.812 151.609 209.266 151.812L208.688 153.195C208.297 153.023 207.904 152.883 207.508 152.773C207.117 152.659 206.719 152.602 206.312 152.602C205.839 152.602 205.477 152.674 205.227 152.82C204.982 152.966 204.859 153.174 204.859 153.445C204.859 153.648 204.919 153.82 205.039 153.961C205.159 154.102 205.365 154.242 205.656 154.383C205.953 154.523 206.365 154.698 206.891 154.906C207.406 155.104 207.852 155.312 208.227 155.531C208.607 155.745 208.898 156.008 209.102 156.32C209.305 156.633 209.406 157.036 209.406 157.531ZM217.203 157.531C217.203 158.099 217.065 158.578 216.789 158.969C216.513 159.359 216.109 159.656 215.578 159.859C215.052 160.057 214.406 160.156 213.641 160.156C213.036 160.156 212.516 160.112 212.078 160.023C211.646 159.94 211.237 159.81 210.852 159.633V158.047C211.263 158.24 211.724 158.406 212.234 158.547C212.75 158.688 213.237 158.758 213.695 158.758C214.299 158.758 214.734 158.664 215 158.477C215.266 158.284 215.398 158.029 215.398 157.711C215.398 157.523 215.344 157.357 215.234 157.211C215.13 157.06 214.932 156.906 214.641 156.75C214.354 156.589 213.932 156.396 213.375 156.172C212.828 155.953 212.367 155.734 211.992 155.516C211.617 155.297 211.333 155.034 211.141 154.727C210.948 154.414 210.852 154.016 210.852 153.531C210.852 152.766 211.154 152.185 211.758 151.789C212.367 151.388 213.172 151.188 214.172 151.188C214.703 151.188 215.203 151.242 215.672 151.352C216.146 151.456 216.609 151.609 217.062 151.812L216.484 153.195C216.094 153.023 215.701 152.883 215.305 152.773C214.914 152.659 214.516 152.602 214.109 152.602C213.635 152.602 213.273 152.674 213.023 152.82C212.779 152.966 212.656 153.174 212.656 153.445C212.656 153.648 212.716 153.82 212.836 153.961C212.956 154.102 213.161 154.242 213.453 154.383C213.75 154.523 214.161 154.698 214.688 154.906C215.203 155.104 215.648 155.312 216.023 155.531C216.404 155.745 216.695 156.008 216.898 156.32C217.102 156.633 217.203 157.036 217.203 157.531ZM226.828 160.156C226.01 160.156 225.302 159.997 224.703 159.68C224.104 159.362 223.643 158.875 223.32 158.219C222.997 157.562 222.836 156.729 222.836 155.719C222.836 154.667 223.013 153.807 223.367 153.141C223.721 152.474 224.211 151.982 224.836 151.664C225.466 151.346 226.188 151.188 227 151.188C227.516 151.188 227.982 151.24 228.398 151.344C228.82 151.443 229.177 151.565 229.469 151.711L228.922 153.18C228.604 153.049 228.279 152.94 227.945 152.852C227.612 152.763 227.292 152.719 226.984 152.719C226.479 152.719 226.057 152.831 225.719 153.055C225.385 153.279 225.135 153.612 224.969 154.055C224.807 154.497 224.727 155.047 224.727 155.703C224.727 156.339 224.81 156.875 224.977 157.312C225.143 157.745 225.391 158.073 225.719 158.297C226.047 158.516 226.451 158.625 226.93 158.625C227.404 158.625 227.828 158.568 228.203 158.453C228.578 158.339 228.932 158.19 229.266 158.008V159.602C228.938 159.789 228.586 159.927 228.211 160.016C227.836 160.109 227.375 160.156 226.828 160.156ZM238.836 151.352V160H237.391L237.141 158.836H237.039C236.857 159.133 236.625 159.38 236.344 159.578C236.062 159.771 235.75 159.914 235.406 160.008C235.062 160.107 234.701 160.156 234.32 160.156C233.669 160.156 233.112 160.047 232.648 159.828C232.19 159.604 231.839 159.26 231.594 158.797C231.349 158.333 231.227 157.734 231.227 157V151.352H233.07V156.656C233.07 157.328 233.206 157.831 233.477 158.164C233.753 158.497 234.18 158.664 234.758 158.664C235.315 158.664 235.758 158.549 236.086 158.32C236.414 158.091 236.646 157.753 236.781 157.305C236.922 156.857 236.992 156.307 236.992 155.656V151.352H238.836ZM247.281 157.531C247.281 158.099 247.143 158.578 246.867 158.969C246.591 159.359 246.188 159.656 245.656 159.859C245.13 160.057 244.484 160.156 243.719 160.156C243.115 160.156 242.594 160.112 242.156 160.023C241.724 159.94 241.315 159.81 240.93 159.633V158.047C241.341 158.24 241.802 158.406 242.312 158.547C242.828 158.688 243.315 158.758 243.773 158.758C244.378 158.758 244.812 158.664 245.078 158.477C245.344 158.284 245.477 158.029 245.477 157.711C245.477 157.523 245.422 157.357 245.312 157.211C245.208 157.06 245.01 156.906 244.719 156.75C244.432 156.589 244.01 156.396 243.453 156.172C242.906 155.953 242.445 155.734 242.07 155.516C241.695 155.297 241.411 155.034 241.219 154.727C241.026 154.414 240.93 154.016 240.93 153.531C240.93 152.766 241.232 152.185 241.836 151.789C242.445 151.388 243.25 151.188 244.25 151.188C244.781 151.188 245.281 151.242 245.75 151.352C246.224 151.456 246.688 151.609 247.141 151.812L246.562 153.195C246.172 153.023 245.779 152.883 245.383 152.773C244.992 152.659 244.594 152.602 244.188 152.602C243.714 152.602 243.352 152.674 243.102 152.82C242.857 152.966 242.734 153.174 242.734 153.445C242.734 153.648 242.794 153.82 242.914 153.961C243.034 154.102 243.24 154.242 243.531 154.383C243.828 154.523 244.24 154.698 244.766 154.906C245.281 155.104 245.727 155.312 246.102 155.531C246.482 155.745 246.773 156.008 246.977 156.32C247.18 156.633 247.281 157.036 247.281 157.531ZM252.484 158.672C252.724 158.672 252.961 158.651 253.195 158.609C253.43 158.562 253.643 158.508 253.836 158.445V159.836C253.633 159.924 253.37 160 253.047 160.062C252.724 160.125 252.388 160.156 252.039 160.156C251.549 160.156 251.109 160.076 250.719 159.914C250.328 159.747 250.018 159.464 249.789 159.062C249.56 158.661 249.445 158.107 249.445 157.398V152.75H248.266V151.93L249.531 151.281L250.133 149.43H251.289V151.352H253.766V152.75H251.289V157.375C251.289 157.812 251.398 158.138 251.617 158.352C251.836 158.565 252.125 158.672 252.484 158.672ZM263.25 155.656C263.25 156.375 263.156 157.013 262.969 157.57C262.781 158.128 262.508 158.599 262.148 158.984C261.789 159.365 261.357 159.656 260.852 159.859C260.346 160.057 259.776 160.156 259.141 160.156C258.547 160.156 258.003 160.057 257.508 159.859C257.013 159.656 256.583 159.365 256.219 158.984C255.859 158.599 255.581 158.128 255.383 157.57C255.185 157.013 255.086 156.375 255.086 155.656C255.086 154.703 255.25 153.896 255.578 153.234C255.911 152.568 256.385 152.06 257 151.711C257.615 151.362 258.346 151.188 259.195 151.188C259.992 151.188 260.695 151.362 261.305 151.711C261.914 152.06 262.391 152.568 262.734 153.234C263.078 153.901 263.25 154.708 263.25 155.656ZM256.977 155.656C256.977 156.286 257.052 156.826 257.203 157.273C257.359 157.721 257.599 158.065 257.922 158.305C258.245 158.539 258.661 158.656 259.172 158.656C259.682 158.656 260.099 158.539 260.422 158.305C260.745 158.065 260.982 157.721 261.133 157.273C261.284 156.826 261.359 156.286 261.359 155.656C261.359 155.026 261.284 154.492 261.133 154.055C260.982 153.612 260.745 153.276 260.422 153.047C260.099 152.812 259.68 152.695 259.164 152.695C258.404 152.695 257.849 152.951 257.5 153.461C257.151 153.971 256.977 154.703 256.977 155.656ZM275.133 151.188C276.102 151.188 276.831 151.438 277.32 151.938C277.815 152.438 278.062 153.24 278.062 154.344V160H276.227V154.672C276.227 154.016 276.099 153.521 275.844 153.188C275.589 152.854 275.201 152.688 274.68 152.688C273.951 152.688 273.424 152.922 273.102 153.391C272.784 153.854 272.625 154.529 272.625 155.414V160H270.789V154.672C270.789 154.234 270.732 153.87 270.617 153.578C270.508 153.281 270.339 153.06 270.109 152.914C269.88 152.763 269.591 152.688 269.242 152.688C268.737 152.688 268.333 152.802 268.031 153.031C267.734 153.26 267.521 153.599 267.391 154.047C267.26 154.49 267.195 155.034 267.195 155.68V160H265.359V151.352H266.789L267.047 152.516H267.148C267.326 152.214 267.544 151.966 267.805 151.773C268.07 151.576 268.365 151.43 268.688 151.336C269.01 151.237 269.346 151.188 269.695 151.188C270.341 151.188 270.885 151.302 271.328 151.531C271.771 151.755 272.102 152.099 272.32 152.562H272.461C272.732 152.094 273.109 151.747 273.594 151.523C274.078 151.299 274.591 151.188 275.133 151.188ZM284.07 151.188C284.841 151.188 285.503 151.346 286.055 151.664C286.607 151.982 287.031 152.432 287.328 153.016C287.625 153.599 287.773 154.297 287.773 155.109V156.094H282C282.021 156.932 282.245 157.578 282.672 158.031C283.104 158.484 283.708 158.711 284.484 158.711C285.036 158.711 285.531 158.659 285.969 158.555C286.411 158.445 286.867 158.286 287.336 158.078V159.57C286.904 159.773 286.464 159.922 286.016 160.016C285.568 160.109 285.031 160.156 284.406 160.156C283.557 160.156 282.81 159.992 282.164 159.664C281.523 159.331 281.021 158.836 280.656 158.18C280.297 157.523 280.117 156.708 280.117 155.734C280.117 154.766 280.281 153.943 280.609 153.266C280.938 152.589 281.398 152.073 281.992 151.719C282.586 151.365 283.279 151.188 284.07 151.188ZM284.07 152.57C283.492 152.57 283.023 152.758 282.664 153.133C282.31 153.508 282.102 154.057 282.039 154.781H285.977C285.971 154.349 285.898 153.966 285.758 153.633C285.622 153.299 285.414 153.039 285.133 152.852C284.857 152.664 284.503 152.57 284.07 152.57ZM294.227 151.188C294.372 151.188 294.531 151.195 294.703 151.211C294.875 151.227 295.023 151.247 295.148 151.273L294.977 152.992C294.867 152.961 294.732 152.938 294.57 152.922C294.414 152.906 294.273 152.898 294.148 152.898C293.82 152.898 293.508 152.953 293.211 153.062C292.914 153.167 292.651 153.328 292.422 153.547C292.193 153.76 292.013 154.029 291.883 154.352C291.753 154.674 291.688 155.049 291.688 155.477V160H289.844V151.352H291.281L291.531 152.875H291.617C291.789 152.568 292.003 152.286 292.258 152.031C292.513 151.776 292.805 151.573 293.133 151.422C293.466 151.266 293.831 151.188 294.227 151.188ZM302.75 160H300.906V147.844H302.75V160ZM308.766 151.188C309.859 151.188 310.685 151.43 311.242 151.914C311.805 152.398 312.086 153.154 312.086 154.18V160H310.781L310.43 158.773H310.367C310.122 159.086 309.87 159.344 309.609 159.547C309.349 159.75 309.047 159.901 308.703 160C308.365 160.104 307.951 160.156 307.461 160.156C306.945 160.156 306.484 160.062 306.078 159.875C305.672 159.682 305.352 159.391 305.117 159C304.883 158.609 304.766 158.115 304.766 157.516C304.766 156.625 305.096 155.956 305.758 155.508C306.424 155.06 307.43 154.812 308.773 154.766L310.273 154.711V154.258C310.273 153.659 310.133 153.232 309.852 152.977C309.576 152.721 309.185 152.594 308.68 152.594C308.247 152.594 307.828 152.656 307.422 152.781C307.016 152.906 306.62 153.06 306.234 153.242L305.641 151.945C306.062 151.721 306.542 151.539 307.078 151.398C307.62 151.258 308.182 151.188 308.766 151.188ZM310.266 155.867L309.148 155.906C308.232 155.938 307.589 156.094 307.219 156.375C306.849 156.656 306.664 157.042 306.664 157.531C306.664 157.958 306.792 158.271 307.047 158.469C307.302 158.661 307.638 158.758 308.055 158.758C308.69 158.758 309.216 158.578 309.633 158.219C310.055 157.854 310.266 157.32 310.266 156.617V155.867ZM322.195 151.352V160H320.75L320.5 158.836H320.398C320.216 159.133 319.984 159.38 319.703 159.578C319.422 159.771 319.109 159.914 318.766 160.008C318.422 160.107 318.06 160.156 317.68 160.156C317.029 160.156 316.471 160.047 316.008 159.828C315.549 159.604 315.198 159.26 314.953 158.797C314.708 158.333 314.586 157.734 314.586 157V151.352H316.43V156.656C316.43 157.328 316.565 157.831 316.836 158.164C317.112 158.497 317.539 158.664 318.117 158.664C318.674 158.664 319.117 158.549 319.445 158.32C319.773 158.091 320.005 157.753 320.141 157.305C320.281 156.857 320.352 156.307 320.352 155.656V151.352H322.195ZM329.336 151.188C330.31 151.188 331.068 151.44 331.609 151.945C332.156 152.445 332.43 153.25 332.43 154.359V160H330.594V154.703C330.594 154.031 330.456 153.529 330.18 153.195C329.904 152.857 329.477 152.688 328.898 152.688C328.06 152.688 327.477 152.945 327.148 153.461C326.826 153.977 326.664 154.724 326.664 155.703V160H324.828V151.352H326.258L326.516 152.523H326.617C326.805 152.221 327.036 151.974 327.312 151.781C327.594 151.583 327.906 151.435 328.25 151.336C328.599 151.237 328.961 151.188 329.336 151.188ZM338.484 160.156C337.667 160.156 336.958 159.997 336.359 159.68C335.76 159.362 335.299 158.875 334.977 158.219C334.654 157.562 334.492 156.729 334.492 155.719C334.492 154.667 334.669 153.807 335.023 153.141C335.378 152.474 335.867 151.982 336.492 151.664C337.122 151.346 337.844 151.188 338.656 151.188C339.172 151.188 339.638 151.24 340.055 151.344C340.477 151.443 340.833 151.565 341.125 151.711L340.578 153.18C340.26 153.049 339.935 152.94 339.602 152.852C339.268 152.763 338.948 152.719 338.641 152.719C338.135 152.719 337.714 152.831 337.375 153.055C337.042 153.279 336.792 153.612 336.625 154.055C336.464 154.497 336.383 155.047 336.383 155.703C336.383 156.339 336.466 156.875 336.633 157.312C336.799 157.745 337.047 158.073 337.375 158.297C337.703 158.516 338.107 158.625 338.586 158.625C339.06 158.625 339.484 158.568 339.859 158.453C340.234 158.339 340.589 158.19 340.922 158.008V159.602C340.594 159.789 340.242 159.927 339.867 160.016C339.492 160.109 339.031 160.156 338.484 160.156ZM344.789 147.844V150.898C344.789 151.216 344.779 151.526 344.758 151.828C344.742 152.13 344.724 152.365 344.703 152.531H344.805C344.987 152.229 345.211 151.982 345.477 151.789C345.742 151.591 346.039 151.443 346.367 151.344C346.701 151.245 347.055 151.195 347.43 151.195C348.091 151.195 348.654 151.307 349.117 151.531C349.581 151.75 349.935 152.091 350.18 152.555C350.43 153.018 350.555 153.62 350.555 154.359V160H348.719V154.703C348.719 154.031 348.581 153.529 348.305 153.195C348.029 152.857 347.602 152.688 347.023 152.688C346.466 152.688 346.023 152.805 345.695 153.039C345.372 153.268 345.141 153.609 345 154.062C344.859 154.51 344.789 155.057 344.789 155.703V160H342.953V147.844H344.789ZM361.719 151.188C362.745 151.188 363.568 151.562 364.188 152.312C364.812 153.062 365.125 154.177 365.125 155.656C365.125 156.635 364.979 157.461 364.688 158.133C364.401 158.799 363.997 159.305 363.477 159.648C362.961 159.987 362.359 160.156 361.672 160.156C361.234 160.156 360.854 160.099 360.531 159.984C360.208 159.87 359.932 159.721 359.703 159.539C359.474 159.352 359.281 159.148 359.125 158.93H359.016C359.042 159.138 359.065 159.37 359.086 159.625C359.112 159.875 359.125 160.104 359.125 160.312V163.836H357.281V151.352H358.781L359.039 152.547H359.125C359.286 152.302 359.482 152.076 359.711 151.867C359.945 151.659 360.227 151.495 360.555 151.375C360.888 151.25 361.276 151.188 361.719 151.188ZM361.227 152.688C360.721 152.688 360.315 152.789 360.008 152.992C359.706 153.19 359.484 153.49 359.344 153.891C359.208 154.292 359.135 154.794 359.125 155.398V155.656C359.125 156.297 359.19 156.841 359.32 157.289C359.456 157.732 359.677 158.07 359.984 158.305C360.297 158.534 360.719 158.648 361.25 158.648C361.698 158.648 362.068 158.526 362.359 158.281C362.656 158.036 362.878 157.688 363.023 157.234C363.169 156.781 363.242 156.247 363.242 155.633C363.242 154.701 363.076 153.977 362.742 153.461C362.414 152.945 361.909 152.688 361.227 152.688ZM370.641 151.188C371.734 151.188 372.56 151.43 373.117 151.914C373.68 152.398 373.961 153.154 373.961 154.18V160H372.656L372.305 158.773H372.242C371.997 159.086 371.745 159.344 371.484 159.547C371.224 159.75 370.922 159.901 370.578 160C370.24 160.104 369.826 160.156 369.336 160.156C368.82 160.156 368.359 160.062 367.953 159.875C367.547 159.682 367.227 159.391 366.992 159C366.758 158.609 366.641 158.115 366.641 157.516C366.641 156.625 366.971 155.956 367.633 155.508C368.299 155.06 369.305 154.812 370.648 154.766L372.148 154.711V154.258C372.148 153.659 372.008 153.232 371.727 152.977C371.451 152.721 371.06 152.594 370.555 152.594C370.122 152.594 369.703 152.656 369.297 152.781C368.891 152.906 368.495 153.06 368.109 153.242L367.516 151.945C367.938 151.721 368.417 151.539 368.953 151.398C369.495 151.258 370.057 151.188 370.641 151.188ZM372.141 155.867L371.023 155.906C370.107 155.938 369.464 156.094 369.094 156.375C368.724 156.656 368.539 157.042 368.539 157.531C368.539 157.958 368.667 158.271 368.922 158.469C369.177 158.661 369.513 158.758 369.93 158.758C370.565 158.758 371.091 158.578 371.508 158.219C371.93 157.854 372.141 157.32 372.141 156.617V155.867ZM380.914 151.188C381.06 151.188 381.219 151.195 381.391 151.211C381.562 151.227 381.711 151.247 381.836 151.273L381.664 152.992C381.555 152.961 381.419 152.938 381.258 152.922C381.102 152.906 380.961 152.898 380.836 152.898C380.508 152.898 380.195 152.953 379.898 153.062C379.602 153.167 379.339 153.328 379.109 153.547C378.88 153.76 378.701 154.029 378.57 154.352C378.44 154.674 378.375 155.049 378.375 155.477V160H376.531V151.352H377.969L378.219 152.875H378.305C378.477 152.568 378.69 152.286 378.945 152.031C379.201 151.776 379.492 151.573 379.82 151.422C380.154 151.266 380.518 151.188 380.914 151.188ZM386.656 158.672C386.896 158.672 387.133 158.651 387.367 158.609C387.602 158.562 387.815 158.508 388.008 158.445V159.836C387.805 159.924 387.542 160 387.219 160.062C386.896 160.125 386.56 160.156 386.211 160.156C385.721 160.156 385.281 160.076 384.891 159.914C384.5 159.747 384.19 159.464 383.961 159.062C383.732 158.661 383.617 158.107 383.617 157.398V152.75H382.438V151.93L383.703 151.281L384.305 149.43H385.461V151.352H387.938V152.75H385.461V157.375C385.461 157.812 385.57 158.138 385.789 158.352C386.008 158.565 386.297 158.672 386.656 158.672ZM388.461 151.352H390.461L392.234 156.289C392.312 156.513 392.383 156.734 392.445 156.953C392.513 157.167 392.57 157.378 392.617 157.586C392.669 157.794 392.711 158.003 392.742 158.211H392.789C392.841 157.94 392.914 157.638 393.008 157.305C393.107 156.966 393.216 156.628 393.336 156.289L395.039 151.352H397.016L393.305 161.188C393.091 161.75 392.828 162.229 392.516 162.625C392.208 163.026 391.844 163.328 391.422 163.531C391 163.74 390.518 163.844 389.977 163.844C389.716 163.844 389.49 163.828 389.297 163.797C389.104 163.771 388.94 163.742 388.805 163.711V162.242C388.914 162.268 389.052 162.292 389.219 162.312C389.385 162.333 389.557 162.344 389.734 162.344C390.062 162.344 390.346 162.279 390.586 162.148C390.826 162.018 391.029 161.833 391.195 161.594C391.362 161.359 391.5 161.091 391.609 160.789L391.914 159.977L388.461 151.352ZM398.062 159.031C398.062 158.604 398.172 158.305 398.391 158.133C398.615 157.956 398.885 157.867 399.203 157.867C399.521 157.867 399.792 157.956 400.016 158.133C400.245 158.305 400.359 158.604 400.359 159.031C400.359 159.448 400.245 159.75 400.016 159.938C399.792 160.12 399.521 160.211 399.203 160.211C398.885 160.211 398.615 160.12 398.391 159.938C398.172 159.75 398.062 159.448 398.062 159.031Z" fill="black"/>
<g filter="url(#filter2_d_2880_948)">
<rect x="32" y="212" width="500" height="68" rx="4" fill="white"/>
</g>
<path d="M62 251C64.7614 251 67 248.761 67 246C67 243.239 64.7614 241 62 241C59.2386 241 57 243.239 57 246C57 248.761 59.2386 251 62 251Z" stroke="#0A2640" stroke-width="2" stroke-linecap="round" stroke-linejoin="round"/>
<path d="M62 235V237" stroke="#0A2640" stroke-width="2" stroke-linecap="round" stroke-linejoin="round"/>
<path d="M62 255V257" stroke="#0A2640" stroke-width="2" stroke-linecap="round" stroke-linejoin="round"/>
<path d="M54.22 238.22L55.64 239.64" stroke="#0A2640" stroke-width="2" stroke-linecap="round" stroke-linejoin="round"/>
<path d="M68.36 252.36L69.78 253.78" stroke="#0A2640" stroke-width="2" stroke-linecap="round" stroke-linejoin="round"/>
<path d="M51 246H53" stroke="#0A2640" stroke-width="2" stroke-linecap="round" stroke-linejoin="round"/>
<path d="M71 246H73" stroke="#0A2640" stroke-width="2" stroke-linecap="round" stroke-linejoin="round"/>
<path d="M54.22 253.78L55.64 252.36" stroke="#0A2640" stroke-width="2" stroke-linecap="round" stroke-linejoin="round"/>
<path d="M68.36 239.64L69.78 238.22" stroke="#0A2640" stroke-width="2" stroke-linecap="round" stroke-linejoin="round"/>
<path d="M93.5 240.578H96.8984C98.3724 240.578 99.4844 240.792 100.234 241.219C100.984 241.646 101.359 242.383 101.359 243.43C101.359 243.867 101.281 244.263 101.125 244.617C100.974 244.966 100.753 245.255 100.461 245.484C100.169 245.708 99.8099 245.859 99.3828 245.938V246.016C99.8255 246.094 100.219 246.232 100.562 246.43C100.911 246.628 101.185 246.911 101.383 247.281C101.586 247.651 101.688 248.13 101.688 248.719C101.688 249.417 101.521 250.01 101.188 250.5C100.859 250.99 100.388 251.362 99.7734 251.617C99.1641 251.872 98.4401 252 97.6016 252H93.5V240.578ZM95.375 245.289H97.1719C98.0208 245.289 98.6094 245.151 98.9375 244.875C99.2656 244.599 99.4297 244.195 99.4297 243.664C99.4297 243.122 99.2344 242.732 98.8438 242.492C98.4583 242.253 97.8438 242.133 97 242.133H95.375V245.289ZM95.375 246.805V250.43H97.3516C98.2266 250.43 98.8411 250.26 99.1953 249.922C99.5495 249.583 99.7266 249.125 99.7266 248.547C99.7266 248.193 99.6458 247.885 99.4844 247.625C99.3281 247.365 99.0703 247.164 98.7109 247.023C98.3516 246.878 97.8672 246.805 97.2578 246.805H95.375ZM111.398 243.352V252H109.953L109.703 250.836H109.602C109.419 251.133 109.188 251.38 108.906 251.578C108.625 251.771 108.312 251.914 107.969 252.008C107.625 252.107 107.263 252.156 106.883 252.156C106.232 252.156 105.674 252.047 105.211 251.828C104.753 251.604 104.401 251.26 104.156 250.797C103.911 250.333 103.789 249.734 103.789 249V243.352H105.633V248.656C105.633 249.328 105.768 249.831 106.039 250.164C106.315 250.497 106.742 250.664 107.32 250.664C107.878 250.664 108.32 250.549 108.648 250.32C108.977 250.091 109.208 249.753 109.344 249.305C109.484 248.857 109.555 248.307 109.555 247.656V243.352H111.398ZM119.844 249.531C119.844 250.099 119.706 250.578 119.43 250.969C119.154 251.359 118.75 251.656 118.219 251.859C117.693 252.057 117.047 252.156 116.281 252.156C115.677 252.156 115.156 252.112 114.719 252.023C114.286 251.94 113.878 251.81 113.492 251.633V250.047C113.904 250.24 114.365 250.406 114.875 250.547C115.391 250.688 115.878 250.758 116.336 250.758C116.94 250.758 117.375 250.664 117.641 250.477C117.906 250.284 118.039 250.029 118.039 249.711C118.039 249.523 117.984 249.357 117.875 249.211C117.771 249.06 117.573 248.906 117.281 248.75C116.995 248.589 116.573 248.396 116.016 248.172C115.469 247.953 115.008 247.734 114.633 247.516C114.258 247.297 113.974 247.034 113.781 246.727C113.589 246.414 113.492 246.016 113.492 245.531C113.492 244.766 113.794 244.185 114.398 243.789C115.008 243.388 115.812 243.188 116.812 243.188C117.344 243.188 117.844 243.242 118.312 243.352C118.786 243.456 119.25 243.609 119.703 243.812L119.125 245.195C118.734 245.023 118.341 244.883 117.945 244.773C117.555 244.659 117.156 244.602 116.75 244.602C116.276 244.602 115.914 244.674 115.664 244.82C115.419 244.966 115.297 245.174 115.297 245.445C115.297 245.648 115.357 245.82 115.477 245.961C115.596 246.102 115.802 246.242 116.094 246.383C116.391 246.523 116.802 246.698 117.328 246.906C117.844 247.104 118.289 247.312 118.664 247.531C119.044 247.745 119.336 248.008 119.539 248.32C119.742 248.633 119.844 249.036 119.844 249.531ZM123.664 243.352V252H121.828V243.352H123.664ZM122.758 240.039C123.039 240.039 123.281 240.115 123.484 240.266C123.693 240.417 123.797 240.677 123.797 241.047C123.797 241.411 123.693 241.672 123.484 241.828C123.281 241.979 123.039 242.055 122.758 242.055C122.466 242.055 122.219 241.979 122.016 241.828C121.818 241.672 121.719 241.411 121.719 241.047C121.719 240.677 121.818 240.417 122.016 240.266C122.219 240.115 122.466 240.039 122.758 240.039ZM130.805 243.188C131.779 243.188 132.536 243.44 133.078 243.945C133.625 244.445 133.898 245.25 133.898 246.359V252H132.062V246.703C132.062 246.031 131.924 245.529 131.648 245.195C131.372 244.857 130.945 244.688 130.367 244.688C129.529 244.688 128.945 244.945 128.617 245.461C128.294 245.977 128.133 246.724 128.133 247.703V252H126.297V243.352H127.727L127.984 244.523H128.086C128.273 244.221 128.505 243.974 128.781 243.781C129.062 243.583 129.375 243.435 129.719 243.336C130.068 243.237 130.43 243.188 130.805 243.188ZM139.914 243.188C140.685 243.188 141.346 243.346 141.898 243.664C142.451 243.982 142.875 244.432 143.172 245.016C143.469 245.599 143.617 246.297 143.617 247.109V248.094H137.844C137.865 248.932 138.089 249.578 138.516 250.031C138.948 250.484 139.552 250.711 140.328 250.711C140.88 250.711 141.375 250.659 141.812 250.555C142.255 250.445 142.711 250.286 143.18 250.078V251.57C142.747 251.773 142.307 251.922 141.859 252.016C141.411 252.109 140.875 252.156 140.25 252.156C139.401 252.156 138.654 251.992 138.008 251.664C137.367 251.331 136.865 250.836 136.5 250.18C136.141 249.523 135.961 248.708 135.961 247.734C135.961 246.766 136.125 245.943 136.453 245.266C136.781 244.589 137.242 244.073 137.836 243.719C138.43 243.365 139.122 243.188 139.914 243.188ZM139.914 244.57C139.336 244.57 138.867 244.758 138.508 245.133C138.154 245.508 137.945 246.057 137.883 246.781H141.82C141.815 246.349 141.742 245.966 141.602 245.633C141.466 245.299 141.258 245.039 140.977 244.852C140.701 244.664 140.346 244.57 139.914 244.57ZM151.5 249.531C151.5 250.099 151.362 250.578 151.086 250.969C150.81 251.359 150.406 251.656 149.875 251.859C149.349 252.057 148.703 252.156 147.938 252.156C147.333 252.156 146.812 252.112 146.375 252.023C145.943 251.94 145.534 251.81 145.148 251.633V250.047C145.56 250.24 146.021 250.406 146.531 250.547C147.047 250.688 147.534 250.758 147.992 250.758C148.596 250.758 149.031 250.664 149.297 250.477C149.562 250.284 149.695 250.029 149.695 249.711C149.695 249.523 149.641 249.357 149.531 249.211C149.427 249.06 149.229 248.906 148.938 248.75C148.651 248.589 148.229 248.396 147.672 248.172C147.125 247.953 146.664 247.734 146.289 247.516C145.914 247.297 145.63 247.034 145.438 246.727C145.245 246.414 145.148 246.016 145.148 245.531C145.148 244.766 145.451 244.185 146.055 243.789C146.664 243.388 147.469 243.188 148.469 243.188C149 243.188 149.5 243.242 149.969 243.352C150.443 243.456 150.906 243.609 151.359 243.812L150.781 245.195C150.391 245.023 149.997 244.883 149.602 244.773C149.211 244.659 148.812 244.602 148.406 244.602C147.932 244.602 147.57 244.674 147.32 244.82C147.076 244.966 146.953 245.174 146.953 245.445C146.953 245.648 147.013 245.82 147.133 245.961C147.253 246.102 147.458 246.242 147.75 246.383C148.047 246.523 148.458 246.698 148.984 246.906C149.5 247.104 149.945 247.312 150.32 247.531C150.701 247.745 150.992 248.008 151.195 248.32C151.398 248.633 151.5 249.036 151.5 249.531ZM159.297 249.531C159.297 250.099 159.159 250.578 158.883 250.969C158.607 251.359 158.203 251.656 157.672 251.859C157.146 252.057 156.5 252.156 155.734 252.156C155.13 252.156 154.609 252.112 154.172 252.023C153.74 251.94 153.331 251.81 152.945 251.633V250.047C153.357 250.24 153.818 250.406 154.328 250.547C154.844 250.688 155.331 250.758 155.789 250.758C156.393 250.758 156.828 250.664 157.094 250.477C157.359 250.284 157.492 250.029 157.492 249.711C157.492 249.523 157.438 249.357 157.328 249.211C157.224 249.06 157.026 248.906 156.734 248.75C156.448 248.589 156.026 248.396 155.469 248.172C154.922 247.953 154.461 247.734 154.086 247.516C153.711 247.297 153.427 247.034 153.234 246.727C153.042 246.414 152.945 246.016 152.945 245.531C152.945 244.766 153.247 244.185 153.852 243.789C154.461 243.388 155.266 243.188 156.266 243.188C156.797 243.188 157.297 243.242 157.766 243.352C158.24 243.456 158.703 243.609 159.156 243.812L158.578 245.195C158.188 245.023 157.794 244.883 157.398 244.773C157.008 244.659 156.609 244.602 156.203 244.602C155.729 244.602 155.367 244.674 155.117 244.82C154.872 244.966 154.75 245.174 154.75 245.445C154.75 245.648 154.81 245.82 154.93 245.961C155.049 246.102 155.255 246.242 155.547 246.383C155.844 246.523 156.255 246.698 156.781 246.906C157.297 247.104 157.742 247.312 158.117 247.531C158.497 247.745 158.789 248.008 158.992 248.32C159.195 248.633 159.297 249.036 159.297 249.531ZM160.531 248.484V246.93H164.562V248.484H160.531ZM169.656 250.672C169.896 250.672 170.133 250.651 170.367 250.609C170.602 250.562 170.815 250.508 171.008 250.445V251.836C170.805 251.924 170.542 252 170.219 252.062C169.896 252.125 169.56 252.156 169.211 252.156C168.721 252.156 168.281 252.076 167.891 251.914C167.5 251.747 167.19 251.464 166.961 251.062C166.732 250.661 166.617 250.107 166.617 249.398V244.75H165.438V243.93L166.703 243.281L167.305 241.43H168.461V243.352H170.938V244.75H168.461V249.375C168.461 249.812 168.57 250.138 168.789 250.352C169.008 250.565 169.297 250.672 169.656 250.672ZM180.422 247.656C180.422 248.375 180.328 249.013 180.141 249.57C179.953 250.128 179.68 250.599 179.32 250.984C178.961 251.365 178.529 251.656 178.023 251.859C177.518 252.057 176.948 252.156 176.312 252.156C175.719 252.156 175.174 252.057 174.68 251.859C174.185 251.656 173.755 251.365 173.391 250.984C173.031 250.599 172.753 250.128 172.555 249.57C172.357 249.013 172.258 248.375 172.258 247.656C172.258 246.703 172.422 245.896 172.75 245.234C173.083 244.568 173.557 244.06 174.172 243.711C174.786 243.362 175.518 243.188 176.367 243.188C177.164 243.188 177.867 243.362 178.477 243.711C179.086 244.06 179.562 244.568 179.906 245.234C180.25 245.901 180.422 246.708 180.422 247.656ZM174.148 247.656C174.148 248.286 174.224 248.826 174.375 249.273C174.531 249.721 174.771 250.065 175.094 250.305C175.417 250.539 175.833 250.656 176.344 250.656C176.854 250.656 177.271 250.539 177.594 250.305C177.917 250.065 178.154 249.721 178.305 249.273C178.456 248.826 178.531 248.286 178.531 247.656C178.531 247.026 178.456 246.492 178.305 246.055C178.154 245.612 177.917 245.276 177.594 245.047C177.271 244.812 176.852 244.695 176.336 244.695C175.576 244.695 175.021 244.951 174.672 245.461C174.323 245.971 174.148 246.703 174.148 247.656ZM181.781 248.484V246.93H185.812V248.484H181.781ZM191.172 252.156C190.354 252.156 189.646 251.997 189.047 251.68C188.448 251.362 187.987 250.875 187.664 250.219C187.341 249.562 187.18 248.729 187.18 247.719C187.18 246.667 187.357 245.807 187.711 245.141C188.065 244.474 188.555 243.982 189.18 243.664C189.81 243.346 190.531 243.188 191.344 243.188C191.859 243.188 192.326 243.24 192.742 243.344C193.164 243.443 193.521 243.565 193.812 243.711L193.266 245.18C192.948 245.049 192.622 244.94 192.289 244.852C191.956 244.763 191.635 244.719 191.328 244.719C190.823 244.719 190.401 244.831 190.062 245.055C189.729 245.279 189.479 245.612 189.312 246.055C189.151 246.497 189.07 247.047 189.07 247.703C189.07 248.339 189.154 248.875 189.32 249.312C189.487 249.745 189.734 250.073 190.062 250.297C190.391 250.516 190.794 250.625 191.273 250.625C191.747 250.625 192.172 250.568 192.547 250.453C192.922 250.339 193.276 250.19 193.609 250.008V251.602C193.281 251.789 192.93 251.927 192.555 252.016C192.18 252.109 191.719 252.156 191.172 252.156ZM203.297 247.656C203.297 248.375 203.203 249.013 203.016 249.57C202.828 250.128 202.555 250.599 202.195 250.984C201.836 251.365 201.404 251.656 200.898 251.859C200.393 252.057 199.823 252.156 199.188 252.156C198.594 252.156 198.049 252.057 197.555 251.859C197.06 251.656 196.63 251.365 196.266 250.984C195.906 250.599 195.628 250.128 195.43 249.57C195.232 249.013 195.133 248.375 195.133 247.656C195.133 246.703 195.297 245.896 195.625 245.234C195.958 244.568 196.432 244.06 197.047 243.711C197.661 243.362 198.393 243.188 199.242 243.188C200.039 243.188 200.742 243.362 201.352 243.711C201.961 244.06 202.438 244.568 202.781 245.234C203.125 245.901 203.297 246.708 203.297 247.656ZM197.023 247.656C197.023 248.286 197.099 248.826 197.25 249.273C197.406 249.721 197.646 250.065 197.969 250.305C198.292 250.539 198.708 250.656 199.219 250.656C199.729 250.656 200.146 250.539 200.469 250.305C200.792 250.065 201.029 249.721 201.18 249.273C201.331 248.826 201.406 248.286 201.406 247.656C201.406 247.026 201.331 246.492 201.18 246.055C201.029 245.612 200.792 245.276 200.469 245.047C200.146 244.812 199.727 244.695 199.211 244.695C198.451 244.695 197.896 244.951 197.547 245.461C197.198 245.971 197.023 246.703 197.023 247.656ZM209.914 243.188C210.888 243.188 211.646 243.44 212.188 243.945C212.734 244.445 213.008 245.25 213.008 246.359V252H211.172V246.703C211.172 246.031 211.034 245.529 210.758 245.195C210.482 244.857 210.055 244.688 209.477 244.688C208.638 244.688 208.055 244.945 207.727 245.461C207.404 245.977 207.242 246.724 207.242 247.703V252H205.406V243.352H206.836L207.094 244.523H207.195C207.383 244.221 207.615 243.974 207.891 243.781C208.172 243.583 208.484 243.435 208.828 243.336C209.177 243.237 209.539 243.188 209.914 243.188ZM221.391 249.531C221.391 250.099 221.253 250.578 220.977 250.969C220.701 251.359 220.297 251.656 219.766 251.859C219.24 252.057 218.594 252.156 217.828 252.156C217.224 252.156 216.703 252.112 216.266 252.023C215.833 251.94 215.424 251.81 215.039 251.633V250.047C215.451 250.24 215.911 250.406 216.422 250.547C216.938 250.688 217.424 250.758 217.883 250.758C218.487 250.758 218.922 250.664 219.188 250.477C219.453 250.284 219.586 250.029 219.586 249.711C219.586 249.523 219.531 249.357 219.422 249.211C219.318 249.06 219.12 248.906 218.828 248.75C218.542 248.589 218.12 248.396 217.562 248.172C217.016 247.953 216.555 247.734 216.18 247.516C215.805 247.297 215.521 247.034 215.328 246.727C215.135 246.414 215.039 246.016 215.039 245.531C215.039 244.766 215.341 244.185 215.945 243.789C216.555 243.388 217.359 243.188 218.359 243.188C218.891 243.188 219.391 243.242 219.859 243.352C220.333 243.456 220.797 243.609 221.25 243.812L220.672 245.195C220.281 245.023 219.888 244.883 219.492 244.773C219.102 244.659 218.703 244.602 218.297 244.602C217.823 244.602 217.461 244.674 217.211 244.82C216.966 244.966 216.844 245.174 216.844 245.445C216.844 245.648 216.904 245.82 217.023 245.961C217.143 246.102 217.349 246.242 217.641 246.383C217.938 246.523 218.349 246.698 218.875 246.906C219.391 247.104 219.836 247.312 220.211 247.531C220.591 247.745 220.883 248.008 221.086 248.32C221.289 248.633 221.391 249.036 221.391 249.531ZM230.914 243.352V252H229.469L229.219 250.836H229.117C228.935 251.133 228.703 251.38 228.422 251.578C228.141 251.771 227.828 251.914 227.484 252.008C227.141 252.107 226.779 252.156 226.398 252.156C225.747 252.156 225.19 252.047 224.727 251.828C224.268 251.604 223.917 251.26 223.672 250.797C223.427 250.333 223.305 249.734 223.305 249V243.352H225.148V248.656C225.148 249.328 225.284 249.831 225.555 250.164C225.831 250.497 226.258 250.664 226.836 250.664C227.393 250.664 227.836 250.549 228.164 250.32C228.492 250.091 228.724 249.753 228.859 249.305C229 248.857 229.07 248.307 229.07 247.656V243.352H230.914ZM243.32 243.188C244.289 243.188 245.018 243.438 245.508 243.938C246.003 244.438 246.25 245.24 246.25 246.344V252H244.414V246.672C244.414 246.016 244.286 245.521 244.031 245.188C243.776 244.854 243.388 244.688 242.867 244.688C242.138 244.688 241.612 244.922 241.289 245.391C240.971 245.854 240.812 246.529 240.812 247.414V252H238.977V246.672C238.977 246.234 238.919 245.87 238.805 245.578C238.695 245.281 238.526 245.06 238.297 244.914C238.068 244.763 237.779 244.688 237.43 244.688C236.924 244.688 236.521 244.802 236.219 245.031C235.922 245.26 235.708 245.599 235.578 246.047C235.448 246.49 235.383 247.034 235.383 247.68V252H233.547V243.352H234.977L235.234 244.516H235.336C235.513 244.214 235.732 243.966 235.992 243.773C236.258 243.576 236.552 243.43 236.875 243.336C237.198 243.237 237.534 243.188 237.883 243.188C238.529 243.188 239.073 243.302 239.516 243.531C239.958 243.755 240.289 244.099 240.508 244.562H240.648C240.919 244.094 241.297 243.747 241.781 243.523C242.266 243.299 242.779 243.188 243.32 243.188ZM252.258 243.188C253.029 243.188 253.69 243.346 254.242 243.664C254.794 243.982 255.219 244.432 255.516 245.016C255.812 245.599 255.961 246.297 255.961 247.109V248.094H250.188C250.208 248.932 250.432 249.578 250.859 250.031C251.292 250.484 251.896 250.711 252.672 250.711C253.224 250.711 253.719 250.659 254.156 250.555C254.599 250.445 255.055 250.286 255.523 250.078V251.57C255.091 251.773 254.651 251.922 254.203 252.016C253.755 252.109 253.219 252.156 252.594 252.156C251.745 252.156 250.997 251.992 250.352 251.664C249.711 251.331 249.208 250.836 248.844 250.18C248.484 249.523 248.305 248.708 248.305 247.734C248.305 246.766 248.469 245.943 248.797 245.266C249.125 244.589 249.586 244.073 250.18 243.719C250.773 243.365 251.466 243.188 252.258 243.188ZM252.258 244.57C251.68 244.57 251.211 244.758 250.852 245.133C250.497 245.508 250.289 246.057 250.227 246.781H254.164C254.159 246.349 254.086 245.966 253.945 245.633C253.81 245.299 253.602 245.039 253.32 244.852C253.044 244.664 252.69 244.57 252.258 244.57ZM262.414 243.188C262.56 243.188 262.719 243.195 262.891 243.211C263.062 243.227 263.211 243.247 263.336 243.273L263.164 244.992C263.055 244.961 262.919 244.938 262.758 244.922C262.602 244.906 262.461 244.898 262.336 244.898C262.008 244.898 261.695 244.953 261.398 245.062C261.102 245.167 260.839 245.328 260.609 245.547C260.38 245.76 260.201 246.029 260.07 246.352C259.94 246.674 259.875 247.049 259.875 247.477V252H258.031V243.352H259.469L259.719 244.875H259.805C259.977 244.568 260.19 244.286 260.445 244.031C260.701 243.776 260.992 243.573 261.32 243.422C261.654 243.266 262.018 243.188 262.414 243.188ZM270.938 252H269.094V239.844H270.938V252ZM281.219 247.656C281.219 248.375 281.125 249.013 280.938 249.57C280.75 250.128 280.477 250.599 280.117 250.984C279.758 251.365 279.326 251.656 278.82 251.859C278.315 252.057 277.745 252.156 277.109 252.156C276.516 252.156 275.971 252.057 275.477 251.859C274.982 251.656 274.552 251.365 274.188 250.984C273.828 250.599 273.549 250.128 273.352 249.57C273.154 249.013 273.055 248.375 273.055 247.656C273.055 246.703 273.219 245.896 273.547 245.234C273.88 244.568 274.354 244.06 274.969 243.711C275.583 243.362 276.315 243.188 277.164 243.188C277.961 243.188 278.664 243.362 279.273 243.711C279.883 244.06 280.359 244.568 280.703 245.234C281.047 245.901 281.219 246.708 281.219 247.656ZM274.945 247.656C274.945 248.286 275.021 248.826 275.172 249.273C275.328 249.721 275.568 250.065 275.891 250.305C276.214 250.539 276.63 250.656 277.141 250.656C277.651 250.656 278.068 250.539 278.391 250.305C278.714 250.065 278.951 249.721 279.102 249.273C279.253 248.826 279.328 248.286 279.328 247.656C279.328 247.026 279.253 246.492 279.102 246.055C278.951 245.612 278.714 245.276 278.391 245.047C278.068 244.812 277.648 244.695 277.133 244.695C276.372 244.695 275.818 244.951 275.469 245.461C275.12 245.971 274.945 246.703 274.945 247.656ZM287.836 243.188C288.81 243.188 289.568 243.44 290.109 243.945C290.656 244.445 290.93 245.25 290.93 246.359V252H289.094V246.703C289.094 246.031 288.956 245.529 288.68 245.195C288.404 244.857 287.977 244.688 287.398 244.688C286.56 244.688 285.977 244.945 285.648 245.461C285.326 245.977 285.164 246.724 285.164 247.703V252H283.328V243.352H284.758L285.016 244.523H285.117C285.305 244.221 285.536 243.974 285.812 243.781C286.094 243.583 286.406 243.435 286.75 243.336C287.099 243.237 287.461 243.188 287.836 243.188ZM295.969 255.844C294.797 255.844 293.898 255.633 293.273 255.211C292.648 254.789 292.336 254.198 292.336 253.438C292.336 252.906 292.503 252.456 292.836 252.086C293.169 251.721 293.646 251.469 294.266 251.328C294.031 251.224 293.828 251.062 293.656 250.844C293.49 250.62 293.406 250.372 293.406 250.102C293.406 249.779 293.497 249.503 293.68 249.273C293.862 249.044 294.135 248.823 294.5 248.609C294.047 248.417 293.682 248.104 293.406 247.672C293.135 247.234 293 246.721 293 246.133C293 245.508 293.133 244.977 293.398 244.539C293.664 244.096 294.052 243.76 294.562 243.531C295.073 243.297 295.69 243.18 296.414 243.18C296.57 243.18 296.74 243.19 296.922 243.211C297.109 243.227 297.281 243.247 297.438 243.273C297.599 243.294 297.721 243.318 297.805 243.344H300.797V244.367L299.328 244.641C299.469 244.839 299.581 245.065 299.664 245.32C299.747 245.57 299.789 245.844 299.789 246.141C299.789 247.036 299.479 247.742 298.859 248.258C298.245 248.768 297.396 249.023 296.312 249.023C296.052 249.013 295.799 248.992 295.555 248.961C295.367 249.076 295.224 249.203 295.125 249.344C295.026 249.479 294.977 249.633 294.977 249.805C294.977 249.945 295.026 250.06 295.125 250.148C295.224 250.232 295.37 250.294 295.562 250.336C295.76 250.378 296 250.398 296.281 250.398H297.773C298.721 250.398 299.445 250.599 299.945 251C300.445 251.401 300.695 251.99 300.695 252.766C300.695 253.75 300.289 254.508 299.477 255.039C298.664 255.576 297.495 255.844 295.969 255.844ZM296.039 254.555C296.68 254.555 297.219 254.492 297.656 254.367C298.094 254.242 298.424 254.062 298.648 253.828C298.872 253.599 298.984 253.326 298.984 253.008C298.984 252.727 298.914 252.51 298.773 252.359C298.633 252.208 298.422 252.104 298.141 252.047C297.859 251.99 297.51 251.961 297.094 251.961H295.734C295.396 251.961 295.096 252.013 294.836 252.117C294.576 252.227 294.372 252.383 294.227 252.586C294.086 252.789 294.016 253.034 294.016 253.32C294.016 253.716 294.19 254.021 294.539 254.234C294.893 254.448 295.393 254.555 296.039 254.555ZM296.398 247.82C296.935 247.82 297.333 247.674 297.594 247.383C297.854 247.086 297.984 246.669 297.984 246.133C297.984 245.549 297.849 245.112 297.578 244.82C297.312 244.529 296.917 244.383 296.391 244.383C295.875 244.383 295.482 244.531 295.211 244.828C294.945 245.125 294.812 245.565 294.812 246.148C294.812 246.674 294.945 247.086 295.211 247.383C295.482 247.674 295.878 247.82 296.398 247.82ZM309.75 250.672C309.99 250.672 310.227 250.651 310.461 250.609C310.695 250.562 310.909 250.508 311.102 250.445V251.836C310.898 251.924 310.635 252 310.312 252.062C309.99 252.125 309.654 252.156 309.305 252.156C308.815 252.156 308.375 252.076 307.984 251.914C307.594 251.747 307.284 251.464 307.055 251.062C306.826 250.661 306.711 250.107 306.711 249.398V244.75H305.531V243.93L306.797 243.281L307.398 241.43H308.555V243.352H311.031V244.75H308.555V249.375C308.555 249.812 308.664 250.138 308.883 250.352C309.102 250.565 309.391 250.672 309.75 250.672ZM316.25 243.188C317.344 243.188 318.169 243.43 318.727 243.914C319.289 244.398 319.57 245.154 319.57 246.18V252H318.266L317.914 250.773H317.852C317.607 251.086 317.354 251.344 317.094 251.547C316.833 251.75 316.531 251.901 316.188 252C315.849 252.104 315.435 252.156 314.945 252.156C314.43 252.156 313.969 252.062 313.562 251.875C313.156 251.682 312.836 251.391 312.602 251C312.367 250.609 312.25 250.115 312.25 249.516C312.25 248.625 312.581 247.956 313.242 247.508C313.909 247.06 314.914 246.812 316.258 246.766L317.758 246.711V246.258C317.758 245.659 317.617 245.232 317.336 244.977C317.06 244.721 316.669 244.594 316.164 244.594C315.732 244.594 315.312 244.656 314.906 244.781C314.5 244.906 314.104 245.06 313.719 245.242L313.125 243.945C313.547 243.721 314.026 243.539 314.562 243.398C315.104 243.258 315.667 243.188 316.25 243.188ZM317.75 247.867L316.633 247.906C315.716 247.938 315.073 248.094 314.703 248.375C314.333 248.656 314.148 249.042 314.148 249.531C314.148 249.958 314.276 250.271 314.531 250.469C314.786 250.661 315.122 250.758 315.539 250.758C316.174 250.758 316.701 250.578 317.117 250.219C317.539 249.854 317.75 249.32 317.75 248.617V247.867ZM323.977 243.352V252H322.141V243.352H323.977ZM323.07 240.039C323.352 240.039 323.594 240.115 323.797 240.266C324.005 240.417 324.109 240.677 324.109 241.047C324.109 241.411 324.005 241.672 323.797 241.828C323.594 241.979 323.352 242.055 323.07 242.055C322.779 242.055 322.531 241.979 322.328 241.828C322.13 241.672 322.031 241.411 322.031 241.047C322.031 240.677 322.13 240.417 322.328 240.266C322.531 240.115 322.779 240.039 323.07 240.039ZM328.453 252H326.609V239.844H328.453V252ZM330.812 251.031C330.812 250.604 330.922 250.305 331.141 250.133C331.365 249.956 331.635 249.867 331.953 249.867C332.271 249.867 332.542 249.956 332.766 250.133C332.995 250.305 333.109 250.604 333.109 251.031C333.109 251.448 332.995 251.75 332.766 251.938C332.542 252.12 332.271 252.211 331.953 252.211C331.635 252.211 331.365 252.12 331.141 251.938C330.922 251.75 330.812 251.448 330.812 251.031Z" fill="black"/>
<defs>
<filter id="filter0_d_2880_948" x="0" y="0" width="564" height="132" filterUnits="userSpaceOnUse" color-interpolation-filters="sRGB">
<feFlood flood-opacity="0" result="BackgroundImageFix"/>
<feColorMatrix in="SourceAlpha" type="matrix" values="0 0 0 0 0 0 0 0 0 0 0 0 0 0 0 0 0 0 127 0" result="hardAlpha"/>
<feOffset dy="4"/>
<feGaussianBlur stdDeviation="16"/>
<feComposite in2="hardAlpha" operator="out"/>
<feColorMatrix type="matrix" values="0 0 0 0 0 0 0 0 0 0 0 0 0 0 0 0 0 0 0.08 0"/>
<feBlend mode="normal" in2="BackgroundImageFix" result="effect1_dropShadow_2880_948"/>
<feBlend mode="normal" in="SourceGraphic" in2="effect1_dropShadow_2880_948" result="shape"/>
</filter>
<filter id="filter1_d_2880_948" x="0" y="92" width="564" height="132" filterUnits="userSpaceOnUse" color-interpolation-filters="sRGB">
<feFlood flood-opacity="0" result="BackgroundImageFix"/>
<feColorMatrix in="SourceAlpha" type="matrix" values="0 0 0 0 0 0 0 0 0 0 0 0 0 0 0 0 0 0 127 0" result="hardAlpha"/>
<feOffset dy="4"/>
<feGaussianBlur stdDeviation="16"/>
<feComposite in2="hardAlpha" operator="out"/>
<feColorMatrix type="matrix" values="0 0 0 0 0 0 0 0 0 0 0 0 0 0 0 0 0 0 0.08 0"/>
<feBlend mode="normal" in2="BackgroundImageFix" result="effect1_dropShadow_2880_948"/>
<feBlend mode="normal" in="SourceGraphic" in2="effect1_dropShadow_2880_948" result="shape"/>
</filter>
<filter id="filter2_d_2880_948" x="0" y="184" width="564" height="132" filterUnits="userSpaceOnUse" color-interpolation-filters="sRGB">
<feFlood flood-opacity="0" result="BackgroundImageFix"/>
<feColorMatrix in="SourceAlpha" type="matrix" values="0 0 0 0 0 0 0 0 0 0 0 0 0 0 0 0 0 0 127 0" result="hardAlpha"/>
<feOffset dy="4"/>
<feGaussianBlur stdDeviation="16"/>
<feComposite in2="hardAlpha" operator="out"/>
<feColorMatrix type="matrix" values="0 0 0 0 0 0 0 0 0 0 0 0 0 0 0 0 0 0 0.08 0"/>
<feBlend mode="normal" in2="BackgroundImageFix" result="effect1_dropShadow_2880_948"/>
<feBlend mode="normal" in="SourceGraphic" in2="effect1_dropShadow_2880_948" result="shape"/>
</filter>
<clipPath id="clip0_2880_948">
<rect width="24" height="24" fill="white" transform="translate(51.775 141.654)"/>
</clipPath>
</defs>
</svg>
