<svg width="30" height="30" viewBox="0 0 30 30" fill="none" xmlns="http://www.w3.org/2000/svg">
<path fill-rule="evenodd" clip-rule="evenodd" d="M3 12C3 11.6022 3.15804 11.2206 3.43934 10.9393C3.72064 10.658 4.10218 10.5 4.5 10.5H19.962C20.3598 10.5 20.7414 10.658 21.0227 10.9393C21.304 11.2206 21.462 11.6022 21.462 12C21.462 12.3978 21.304 12.7794 21.0227 13.0607C20.7414 13.342 20.3598 13.5 19.962 13.5H4.5C4.10218 13.5 3.72064 13.342 3.43934 13.0607C3.15804 12.7794 3 12.3978 3 12ZM3 6C3 5.60218 3.15804 5.22064 3.43934 4.93934C3.72064 4.65804 4.10218 4.5 4.5 4.5H25.5C25.8978 4.5 26.2794 4.65804 26.5607 4.93934C26.842 5.22064 27 5.60218 27 6C27 6.39782 26.842 6.77936 26.5607 7.06066C26.2794 7.34196 25.8978 7.5 25.5 7.5H4.5C4.10218 7.5 3.72064 7.34196 3.43934 7.06066C3.15804 6.77936 3 6.39782 3 6ZM3 18C3 17.6022 3.15804 17.2206 3.43934 16.9393C3.72064 16.658 4.10218 16.5 4.5 16.5H25.5C25.8978 16.5 26.2794 16.658 26.5607 16.9393C26.842 17.2206 27 17.6022 27 18C27 18.3978 26.842 18.7794 26.5607 19.0607C26.2794 19.342 25.8978 19.5 25.5 19.5H4.5C4.10218 19.5 3.72064 19.342 3.43934 19.0607C3.15804 18.7794 3 18.3978 3 18ZM3 24C3 23.6022 3.15804 23.2206 3.43934 22.9393C3.72064 22.658 4.10218 22.5 4.5 22.5H19.962C20.3598 22.5 20.7414 22.658 21.0227 22.9393C21.304 23.2206 21.462 23.6022 21.462 24C21.462 24.3978 21.304 24.7794 21.0227 25.0607C20.7414 25.342 20.3598 25.5 19.962 25.5H4.5C4.10218 25.5 3.72064 25.342 3.43934 25.0607C3.15804 24.7794 3 24.3978 3 24Z" fill="#0A2640"/>
</svg>
